<svg width="49" height="49" viewBox="0 0 49 49" fill="none" xmlns="http://www.w3.org/2000/svg">
<path d="M47.9083 41.552L35.1526 40.0964C37.5153 31.2652 38.4733 27.6611 41.0313 18.095C41.1748 17.5579 40.8643 17.0032 40.3194 16.8304L39.7376 16.6631C39.6255 16.3479 39.5596 16.0019 39.5596 15.6507C39.5596 15.5647 39.587 15.4744 39.5957 15.3856C39.6655 14.6826 39.6276 15.1614 40.1236 13.2152C41.2266 13.8827 41.868 14.0599 42.2393 14.0599C42.945 14.0599 43.3428 13.3629 43.3594 12.6204C43.3594 12.2874 43.2315 11.9612 43.128 11.7522C43.7047 11.329 43.9596 10.5216 43.6319 9.81182C44.3648 9.25612 44.5943 8.12497 43.7181 7.32751C44.0619 6.95043 44.1733 6.31575 43.8848 5.69366C43.6119 5.11374 43.0833 4.65852 42.5652 4.26159C42.6193 4.06188 43.2396 1.7701 43.209 1.88311C43.4182 1.18679 42.5238 0.673586 41.7872 0.632126C41.7876 0.632186 41.7869 0.632066 41.7872 0.632126C41.128 0.288456 40.1358 0.256836 39.9375 0.947556L39.5074 2.62578C37.9045 1.99271 35.4526 1.22583 34.1338 0.296186C34.0205 0.215136 33.8653 0.243456 33.7852 0.355756C33.7051 0.469036 33.7325 0.624306 33.8448 0.704386C34.3607 1.06633 35.0042 1.37294 35.4163 1.56492C35.3194 2.04435 35.2005 2.51261 35.0596 2.96989C32.7914 2.7548 31.413 5.33445 33.0047 7.09336C32.8052 7.37607 32.5953 7.65037 32.3733 7.91965C31.6152 7.4796 30.907 7.17331 30.0049 6.80008C29.877 6.74442 29.7305 6.80594 29.6787 6.93485C29.625 7.06278 29.6856 7.20829 29.8135 7.26102C31.9781 8.16059 32.1336 8.3543 33.2188 9.05497C34.4391 9.84212 34.3898 10.0452 34.4532 10.8177C34.5447 11.9424 34.6909 13.6286 36.5913 13.9396C36.2763 14.9186 35.625 15.3195 35.5305 15.4195C35.1812 15.3248 34.2448 15.0709 34.1328 15.0413C33.6231 14.8851 33.0635 15.1497 32.8672 15.6478C29.8422 23.201 27.1849 31.0635 26.2241 39.0743L22.7793 38.6829L22.4912 38.7179C22.8306 3.79594 22.7441 12.7703 22.7598 11.2337C22.7598 11.2327 22.7598 11.2317 22.7598 11.2308C22.7598 11.1243 22.7266 10.9681 22.5664 10.8255C22.229 10.5246 21.4922 10.4496 20.94 10.5106C20.2668 10.436 19.1094 10.5608 19.1094 11.2327C19.1594 16.9432 19.3219 38.43 19.3264 39.0815L14.6555 39.6167C15.0368 36.1065 17.3673 14.5703 17.6973 11.5276C17.7834 10.7833 16.3925 10.5537 15.6333 10.6416C15.0379 10.5697 14.123 10.6416 14.0703 11.2376C13.92 12.8847 13.4422 18.1985 13.3958 18.7327C11.1375 17.4051 8.53485 17.9776 6.96218 19.6254C6.94257 19.4267 6.44692 14.4066 6.47854 14.7269C6.37785 13.648 6.23653 12.3715 6.12795 11.221C6.06301 10.6738 5.29006 10.5623 4.56887 10.6415C3.83111 10.5447 2.43699 10.7847 2.501 11.5296C2.82342 14.2399 3.6633 21.5024 4.91116 32.1292C5.23196 34.9599 5.56375 37.7988 5.90262 40.6232L1.09186 41.1829C0.80946 41.2143 0.79239 41.6219 1.07233 41.6761C39.6379 51.516 25.5689 47.9263 28.7676 48.7425C28.818 48.7551 28.8677 48.7521 28.9122 48.7356C65.1272 35.9788 35.9498 46.2583 47.9493 42.0403C48.2117 41.9641 48.1771 41.5809 47.9083 41.552ZM39.0811 15.2727C38.6368 15.0813 38.1749 14.928 37.7012 14.8147C37.7064 14.8046 37.9018 14.3218 37.9112 14.2913C38.3436 14.4133 38.775 14.5519 39.1976 14.7061C39.1738 14.8063 39.115 14.9858 39.0811 15.2727ZM36.671 16.0388C36.771 15.9476 37.0268 15.8168 37.4146 15.2705C37.9898 15.3954 38.546 15.5808 39.0743 15.8254C39.0911 16.1701 39.1468 16.5116 39.2569 16.8255L35.4922 24.2874L36.671 16.0388ZM39.3267 14.234C38.9024 14.0802 38.4715 13.9412 38.0374 13.8195L38.4805 12.0913C38.9224 12.4212 39.327 12.7082 39.6807 12.9394L39.3267 14.234ZM40.8389 2.91631C41.3045 3.04613 41.7737 3.22576 42.2637 3.46276L42.1304 3.95507C41.7208 3.67834 41.2696 3.4204 40.7715 3.17876L40.8389 2.91631ZM42.3934 2.9835C41.9044 2.75248 41.429 2.57243 40.9588 2.44236C41.2669 1.30914 41.2104 1.28535 41.3231 1.20365C41.3294 1.19889 41.338 1.19633 41.3448 1.19211C41.438 1.13706 41.5417 1.12492 41.6605 1.12198C41.6783 1.12631 41.6964 1.13016 41.7159 1.13016C42.088 1.137 42.5225 1.32059 42.6827 1.54032C42.7908 1.68859 42.7558 1.6162 42.3934 2.9835ZM34.9708 3.45927C36.5758 3.58488 37.3469 5.60286 36.1631 6.78349C35.3993 7.54734 34.1483 7.5434 33.3975 6.78349L33.2198 6.96025L33.3419 6.72099C32.1148 5.40004 33.1983 3.27612 34.9708 3.45927ZM34.8965 10.222C34.7557 9.30707 33.7879 8.85688 33.0653 8.35448C33.2786 8.10741 33.4815 7.85271 33.6729 7.58824C34.7051 8.09293 35.8142 7.83951 36.5167 7.13701C37.7084 5.94524 37.3755 3.91261 35.8355 3.18907C35.9615 2.75401 36.0643 2.31511 36.1402 1.87468C38.6648 2.91371 40.9411 3.43256 42.7462 5.05986C43.0674 5.3372 43.2989 5.62236 43.4327 5.90459C43.6378 6.34919 43.5522 6.77655 43.3387 7.00182C43.0186 6.76397 42.6741 6.54308 42.3135 6.34502C42.1944 6.28057 42.0401 6.32256 41.9737 6.44463C41.9083 6.56572 41.9522 6.71807 42.0733 6.78447C42.4812 7.00683 43.3894 7.55475 43.627 7.98271C43.9031 8.42816 43.8083 9.03789 43.3343 9.3994C42.8577 8.86817 41.9572 8.34172 41.3116 8.03935C41.1876 7.98271 41.0391 8.03642 40.9796 8.16044C40.921 8.28544 40.9747 8.43388 41.1007 8.49247C41.6653 8.75692 42.8065 9.39939 43.127 9.9329L43.1304 9.93119C43.1324 9.9332 43.1314 9.93442 43.1339 9.93681C43.4192 10.4224 43.2861 11.0397 42.753 11.3861C42.3438 11.054 41.7286 10.5559 40.6095 9.89579C40.3255 9.72265 40.0709 10.1598 40.3555 10.3255C41.541 11.0251 42.0226 11.4499 42.67 11.9603C42.7518 12.119 42.8594 12.3686 42.8594 12.6145C42.8497 13.0325 42.6993 13.3645 42.4561 13.5032C41.6621 13.9697 38.4695 11.4862 37.755 10.8938C36.8013 9.84314 36.5513 9.63475 36.418 9.5208C36.3145 9.43096 36.1563 9.4417 36.0665 9.54814C35.9766 9.65263 35.9883 9.81084 36.0938 9.8997C36.4674 10.2202 36.7965 10.586 37.084 10.9807L36.5098 13.4222C34.8912 13.0513 35.0524 11.3392 34.8965 10.222ZM36.1519 16.1206L34.7823 25.7249C34.742 26.0028 35.1241 26.1245 35.253 25.8724L39.6492 17.158L40.1749 17.3089C40.4581 17.3987 40.6231 17.6878 40.5489 17.9661C40.5184 18.08 34.5545 40.3854 34.5821 40.2825C33.8805 42.9231 34.1194 42.0263 33.7686 43.3362C33.7071 43.5638 33.544 43.7425 33.3282 43.8138C31.223 44.5304 29.4089 44.1905 27.7705 42.5286C27.6338 42.3831 27.5635 42.1761 27.5791 41.9642C28.1837 35.5305 29.2789 29.0843 34.459 16.1399C34.5672 15.8888 34.8648 15.7496 35.1211 15.8206L36.1519 16.1206ZM22.2134 16.0315H20.377C20.3743 15.6904 20.3716 15.3493 20.3692 15.0081H22.2234C22.22 15.3492 22.2169 15.6903 22.2134 16.0315ZM20.5674 40.5901C20.5665 40.4449 20.3908 17.7823 20.3809 16.5315H22.2086C22.0624 31.9309 22.0889 28.9633 21.9727 40.5901H20.5674ZM22.2598 11.2308C22.2486 12.3233 22.2388 13.4156 22.2281 14.5081H20.3653C20.357 13.4155 20.3477 12.3235 20.3399 11.2308C20.3423 11.2205 20.355 11.2046 20.3794 11.1857C20.4527 11.129 20.6331 11.0455 20.9678 11.0081C21.6895 10.9261 22.2335 11.1272 22.2598 11.2308ZM19.3304 39.581C19.331 39.6815 19.328 39.3047 19.3399 40.8421C19.3409 40.9788 19.4522 41.0901 19.5899 41.0901C19.7158 41.0901 22.3654 41.0901 22.2198 41.0901C22.3565 41.0901 22.4688 40.9798 22.4698 40.8431L22.4861 39.219L22.7813 39.179L26.167 39.5684C26.0914 40.23 26.0186 40.9073 25.9512 41.6224C25.9239 41.9788 26.0479 42.3323 26.2823 42.5667C27.2896 43.5846 28.3514 44.1556 29.5284 44.3144C30.8416 44.8478 32.1622 44.7394 33.4874 44.2874C33.8614 44.1634 34.1465 43.8567 34.251 43.4651C34.5066 42.5119 34.7652 41.5437 35.022 40.584L46.5814 41.9036L28.8209 46.8439C24.0163 45.8606 8.21755 42.627 2.71197 41.5002L5.51348 41.1789C5.53887 41.2902 5.62456 41.3802 5.74322 41.3802H9.29986C9.43756 41.3802 9.54986 41.2679 9.54986 41.1302C9.54986 40.9925 9.43756 40.8802 9.29986 40.8802H9.0694C9.06574 40.8431 9.06208 40.8059 9.05841 40.7688L11.4168 40.4912C11.4034 40.6394 11.3902 40.7875 11.3768 40.9358H11.212C11.0743 40.9358 10.962 41.0481 10.962 41.1858C10.962 41.3235 11.0743 41.4358 11.212 41.4358H14.7813C14.919 41.4358 15.0313 41.3235 15.0313 41.1858C15.0313 41.0481 14.919 40.9358 14.7813 40.9358H14.5125C14.5421 40.6661 14.5709 40.3954 14.6004 40.1255L19.3304 39.581ZM6.00519 15.0252L6.10578 16.0429L4.28815 16.2407C4.24787 15.902 4.20856 15.563 4.16877 15.2243L6.00519 15.0252ZM16.6876 16.24L14.8611 16.0598C14.8914 15.7195 14.9239 15.3802 14.9544 15.0405L16.7969 15.2223L16.6876 16.24ZM14.1265 19.8938C14.6492 20.4103 15.0279 21.0241 15.264 21.6858C13.1722 24.0241 10.3265 25.734 7.25152 26.5009C6.8067 26.0215 6.47271 25.4632 6.26031 24.8589C9.29352 23.9945 12.0787 22.2366 14.1265 19.8938ZM13.4405 27.2337C13.44 27.234 13.4403 27.2345 13.4398 27.2348C13.4223 27.2435 13.4267 27.242 13.4249 27.2429C13.4214 27.2455 13.418 27.2464 13.4149 27.2492C11.8119 28.3746 9.36282 28.3758 7.65534 26.9085C7.65436 26.907 7.65265 26.9058 7.65168 26.9043C10.6158 26.1086 13.3526 24.4656 15.4241 22.2403C15.8592 24.1932 15.05 26.1492 13.4405 27.2337ZM7.75567 27.6136C9.10946 28.5506 10.7721 28.8376 12.5262 28.2303C12.3146 30.4428 11.8394 35.8071 11.4627 39.9826L9.00884 40.2716C8.85506 38.7393 7.98636 30.0347 7.75567 27.6136ZM7.20953 27.1681C7.39736 29.1606 8.46795 39.9136 8.56353 40.8509H7.1524L4.34601 16.7374L6.15485 16.5406L6.51252 20.1645C4.8914 22.3461 5.23194 25.3821 7.20953 27.1681ZM14.0157 40.8909H12.6133C12.8742 37.9175 13.5343 30.5896 13.8199 27.5658C14.7286 26.9209 15.388 26.013 15.7418 24.9678C14.691 34.5974 14.3415 37.9122 14.0157 40.8909ZM15.9979 22.6051C15.8565 21.4892 15.3567 20.441 14.5389 19.6059C14.5873 19.0586 14.7561 17.2261 14.8157 16.5581L16.6339 16.7375C16.4231 18.6928 16.2105 20.649 15.9979 22.6051ZM17.1651 11.4202C17.1876 11.4417 17.2022 11.4632 17.2003 11.4739L16.8507 14.7247L15.0001 14.5421C15.0982 13.4538 15.1949 12.3662 15.2989 11.2747C15.3077 11.2561 15.3926 11.179 15.6739 11.1389C16.2071 11.0638 16.9434 11.2034 17.1651 11.4202ZM13.7567 19.5581C11.7715 21.8324 9.06744 23.5395 6.12286 24.3774C5.09039 20.0108 10.1165 16.6913 13.7567 19.5581ZM5.63092 11.2737C5.72473 12.2788 5.842 13.3363 5.95563 14.5266L4.11041 14.7266C4.07133 14.3932 3.7468 11.6327 3.72857 11.4777C3.72511 11.4364 3.89787 11.3334 3.93511 11.3157C4.12493 11.2255 4.37475 11.1677 4.61822 11.139C5.25885 11.0657 5.62311 11.2054 5.63092 11.2737Z" fill="black"/>
<path d="M34.3565 5.76688C34.5247 5.90143 34.7824 5.74472 35.5059 5.63797C35.8307 5.58891 35.7628 5.09373 35.4317 5.14383C35.2321 5.17369 34.88 5.249 34.7354 5.27664L34.7276 5.19364C34.6973 4.84891 34.671 4.67801 34.4366 4.69462L34.4542 4.94364L34.2061 4.97196C34.2735 5.50239 34.2123 5.65615 34.3565 5.76688Z" fill="black"/>
<path d="M16.4258 7.65264C18.1297 8.06863 20.2069 8.33233 20.4161 8.33233C20.7256 8.33233 21.0059 8.13506 21.0997 7.84014C21.1717 7.61895 21.2261 7.38354 21.285 7.15142C21.6946 7.21593 22.1043 7.28094 22.5159 7.33581C22.7591 7.03228 22.8121 6.69848 22.6189 6.37469C22.2366 6.29406 21.8633 6.22198 21.4903 6.14563C21.5164 5.98322 21.5516 5.82623 21.5713 5.66046C21.6104 5.32648 21.4082 5.00421 21.0909 4.89386C19.3362 4.28444 17.7495 4.16818 17.8497 4.1839C17.445 4.15544 17.1802 4.13481 16.8008 4.12921C16.4532 4.13605 16.1612 4.35382 16.0831 4.67901C16.0499 4.81683 16.0396 4.96185 16.0137 5.10259C15.4747 5.02788 14.9256 4.95031 14.5935 4.89782C14.3833 5.14562 14.3799 5.47491 14.4905 5.85888C14.9566 5.95348 15.4224 6.04815 15.8885 6.14269C15.8733 6.42772 15.8567 6.7138 15.8721 6.99346C15.8887 7.30596 16.1163 7.57647 16.4258 7.65264ZM17.5975 7.39764C17.617 6.48992 17.7503 5.58727 17.9783 4.70642C18.597 4.77277 19.2125 4.88214 19.8213 5.03729C19.4629 5.87591 19.2369 6.75763 19.148 7.66589C18.6067 7.58569 18.0909 7.49658 17.5975 7.39764ZM21.0752 5.60089C20.9864 6.33624 20.835 7.03741 20.6241 7.68683C20.5948 7.7796 20.5098 7.8421 20.3897 7.83136C20.1329 7.80157 19.8882 7.76819 19.6424 7.73511C19.7276 6.85041 19.9488 5.99176 20.3045 5.177C20.5123 5.23828 20.721 5.29492 20.9268 5.36651C21.0235 5.39971 21.087 5.50128 21.0752 5.60089ZM16.5694 4.7962C16.5919 4.70147 16.6876 4.62921 16.7881 4.62921C16.9643 4.63779 16.7062 4.61473 17.4759 4.66711C17.2601 5.52764 17.1307 6.40722 17.1053 7.29272C16.9173 7.25128 16.7271 7.21093 16.545 7.16632C16.4493 7.14288 16.377 7.05987 16.3721 6.9671C16.3321 6.24932 16.4004 5.49835 16.5694 4.7962Z" fill="black"/>
<path d="M7.78595 9.59838C7.97907 9.19421 8.17218 8.7899 8.3653 8.3856C8.55902 8.44506 9.08261 8.61065 9.27643 8.61065C9.53034 8.61065 9.7735 8.4671 9.89752 8.2337C10.4288 7.22686 10.9278 6.09893 11.4229 4.78546C11.5411 4.47394 11.4239 4.12237 11.1465 3.94952C10.9581 3.83154 10.753 3.72668 10.5521 3.61877C10.7046 3.25952 10.8575 2.90057 11.0015 2.53753C10.7779 2.24304 10.4822 2.11712 10.1392 2.22051C9.97809 2.55083 9.82721 2.87481 9.67218 3.1978C9.52814 3.13628 9.39069 3.06737 9.24225 3.01103C8.94049 2.89384 8.58893 3.0081 8.41022 3.28154C7.4486 4.74941 6.96422 6.20746 7.0069 6.10674C6.89661 6.4422 6.81545 6.67553 6.711 7.06671C6.62799 7.38214 6.77545 7.71905 7.05963 7.86749C7.17926 7.93011 7.31134 7.97357 7.43561 8.03015C7.24372 8.50641 7.04743 8.98956 6.9234 9.28143C7.10309 9.53253 7.40631 9.61163 7.78595 9.59838ZM8.26398 4.51019C8.95026 5.02917 9.70417 5.43707 10.5115 5.72741C10.3157 6.2008 10.1177 6.64861 9.91633 7.07336C9.08991 6.84686 8.29597 6.51873 7.54377 6.10961C7.74566 5.56286 7.98517 5.02856 8.26398 4.51019ZM8.99615 3.46612C9.18032 3.46612 10.2918 4.00365 10.8819 4.37335C10.9571 4.42023 10.9883 4.52081 10.9551 4.6087C10.8699 4.83514 10.7842 5.04895 10.6988 5.2644C9.91265 4.98376 9.17974 4.58581 8.51567 4.07544C8.82757 3.54705 8.84658 3.46612 8.99615 3.46612ZM7.1944 7.19464C7.24909 6.98938 7.31818 6.78821 7.38361 6.586C8.11969 6.97925 8.89264 7.29785 9.69562 7.52478C9.61603 7.68414 9.53717 7.84606 9.45612 7.99932C9.41413 8.07745 9.3194 8.12042 9.24518 8.10773C8.57135 7.97687 7.89655 7.74152 7.29108 7.42414C7.21393 7.38409 7.17193 7.28253 7.1944 7.19464Z" fill="black"/>
<path d="M14.1368 21.7893L14.3712 21.5481C14.4678 21.4495 14.4659 21.2903 14.3673 21.1946C14.2676 21.097 14.1104 21.1018 14.0137 21.1985L13.7794 21.4397C13.6827 21.5384 13.6846 21.6975 13.7833 21.7933C13.8814 21.8894 14.0394 21.8886 14.1368 21.7893Z" fill="black"/>
<path d="M13.0547 22.014L12.7178 22.263C12.5213 22.4061 12.6278 22.7142 12.8653 22.7142C12.9984 22.7142 13.0317 22.6356 13.3516 22.4163C13.6169 22.2208 13.3231 21.8179 13.0547 22.014Z" fill="black"/>
<path d="M11.9815 22.8089L11.5674 23.096C11.366 23.2349 11.4673 23.5511 11.71 23.5511C11.8413 23.5511 11.8766 23.4746 12.2667 23.219C12.3799 23.1409 12.4083 22.9847 12.3292 22.8714C12.2491 22.7571 12.0928 22.7308 11.9815 22.8089Z" fill="black"/>
<path d="M10.7569 23.554L10.5264 23.7063C10.3211 23.8421 10.4189 24.1644 10.6651 24.1644C10.7853 24.1644 10.8357 24.09 11.0303 23.972C11.1456 23.8968 11.1788 23.7415 11.1026 23.6263C11.0264 23.5101 10.8711 23.4769 10.7569 23.554Z" fill="black"/>
<path d="M9.74811 24.1448L9.41706 24.2864C9.11539 24.4164 9.30949 24.8756 9.61628 24.7454L9.94538 24.6038C10.0723 24.5501 10.1309 24.4026 10.0762 24.2757C10.0225 24.1487 9.87408 24.0901 9.74811 24.1448Z" fill="black"/>
<path d="M8.711 24.5999L8.46393 24.6888C8.15592 24.7976 8.31565 25.2724 8.6319 25.1595L8.87897 25.0706C9.00885 25.0247 9.07721 24.8812 9.03034 24.7513C8.98443 24.6204 8.83795 24.555 8.711 24.5999Z" fill="black"/>
<path d="M7.62213 25.013L7.28619 25.1282C6.98331 25.2352 7.12563 25.7058 7.45221 25.6009L7.78424 25.4856C7.9151 25.4407 7.98444 25.2991 7.93951 25.1682C7.89557 25.0384 7.75592 24.9661 7.62213 25.013Z" fill="black"/>
</svg>
