<svg width="500" height="500" viewBox="0 0 500 500" fill="none" xmlns="http://www.w3.org/2000/svg">
<path d="M237 134.4L239 130.4C239 129.6 240 129.6 241 129.6C241 129.6 241 129.6 242 129.6L245 124.8L246 124H247L250 117.6C250 116.8 251 116.8 251 116.8H252L255 111.2C255 110.4 256 110.4 256 110.4H257L260 104C260 103.2 261 103.2 261 103.2H262L265 95.1997C265 94.3997 266 94.3997 266 94.3997H267L270 86.3997C270 85.5997 271 85.5997 271 85.5997H272L273 79.1997C273 78.3997 273 78.3997 274 78.3997H275L279 71.9997C279 71.1997 279 71.1997 280 71.1997C281 71.1997 281 71.1997 282 71.1997L283 64.7997C283 63.9997 283 63.9997 284 63.9997H285V56.7997C285 55.9997 285 55.9997 286 55.9997C287 55.9997 287 55.9997 288 55.9997V48.7997C288 47.9997 288 47.9997 289 47.9997C289 47.9997 290 47.9997 291 47.9997H292V39.9997C292 39.1997 292 39.1997 293 39.1997C293 39.1997 294 39.1997 295 39.1997L294 34.3997C294 33.5997 294 33.5997 295 33.5997H296L295 29.5997V28.7997L296 27.9997L294 24.7997V23.9997L295 23.1997L294 21.5997C293 20.7997 291 19.9997 290 19.1997C291 23.1997 291 27.9997 290 33.5997C288 46.3997 283 63.9997 279 71.9997C277 75.9997 274 82.3997 271 87.1997C269 91.9997 266 95.9997 266 97.5997C265 101.6 259 108.8 254 114.4C248 122.4 237 134.4 234 136.8L233 137.6C232 138.4 231 139.2 229 140C230 140 231 140 232 140.8L233 140C233 140 234 139.2 235 139.2C235 139.2 235 139.2 236 139.2L238 136.8L239 136C236 134.4 236 134.4 237 134.4Z" fill="black"/>
<path d="M247 132.8C248 132.8 248 132.8 247 132.8L250 128.8L251 128H252L255 122.4C255 121.6 256 121.6 256 121.6H257L260 116C260 115.2 261 115.2 261 115.2H262L264 108.8C264 108 265 108 265 108H266L269 100.8C269 99.9996 270 99.9996 270 99.9996H271L274 92.7996C274 91.9996 275 91.9996 275 91.9996H276L277 85.5996C277 84.7996 277 84.7996 278 84.7996H279L281 77.5996C281 76.7996 281 76.7996 282 76.7996C283 76.7996 283 76.7996 284 76.7996L285 70.3996C285 69.5996 285 69.5996 286 69.5996H287V62.3996C287 61.5996 287 61.5996 288 61.5996C288 61.5996 289 61.5996 290 61.5996V53.5996C290 52.7996 290 52.7996 291 52.7996C292 52.7996 292 52.7996 293 52.7996H294V44.7996C294 43.9996 294 43.9996 295 43.9996C295 43.9996 296 43.9996 297 43.9996L296 39.1996C296 38.3996 296 38.3996 297 38.3996H298V31.9996V31.1996L299 30.3996L297 26.3996V25.5996L298 24.7996L296 22.3996C296 22.3996 296 22.3996 296 21.5996C296 21.5996 296 21.5996 295 21.5996C295 21.5996 295 22.3996 294 22.3996H293L295 26.3996V27.1996L294 27.9996H293L295 32.7996C295 33.5996 295 33.5996 295 34.3996L294 35.1996L295 39.9996C295 40.7996 295 40.7996 294 41.5996C294 41.5996 293 41.5996 292 41.5996V49.5996C292 50.3996 292 50.3996 291 50.3996C291 50.3996 290 50.3996 289 50.3996H288V57.5996C288 58.3996 288 58.3996 287 58.3996C287 58.3996 286 58.3996 285 58.3996V65.5996C285 66.3996 285 66.3996 284 67.1996C283 67.1996 283 67.1996 282 67.1996L281 73.5996C281 74.3996 281 74.3996 280 74.3996C279 74.3996 279 74.3996 278 74.3996L280 81.5996C280 82.3996 280 82.3996 279 82.3996H278L277 89.5996C277 90.3996 277 90.3996 276 90.3996C275 90.3996 275 90.3996 274 90.3996L271 98.3996C271 99.1996 270 99.1996 270 99.1996H269L266 106.4C266 107.2 265 107.2 265 107.2H264L260 113.6C260 114.4 259 114.4 259 114.4H258L255 120.8C255 121.6 254 121.6 254 121.6H253L250 127.2L249 128C248 128 248 128 248 128L244 133.6C244 134.4 243 134.4 242 134.4C242 134.4 242 134.4 241 134.4L239 136.8L238 137.6H237L236 139.2C237 139.2 239 139.2 240 140L241 137.6L242 136.8H243L245 133.6C246 133.6 247 132.8 247 132.8Z" fill="black"/>
<path d="M261 40.7997C261 41.5997 261 41.5997 260 41.5997C260 41.5997 259 41.5997 258 41.5997V48.7997C258 49.5997 258 49.5997 257 49.5997C257 49.5997 256 49.5997 255 49.5997V56.7997C255 57.5997 255 57.5997 254 58.3997C254 58.3997 253 58.3997 252 58.3997L251 64.7997C251 65.5997 251 65.5997 250 65.5997C249 65.5997 249 65.5997 248 65.5997L247 71.9997C247 72.7997 247 72.7997 246 72.7997H245L246 79.9997C246 80.7997 246 80.7997 245 80.7997C244 80.7997 244 80.7997 243 80.7997L240 88.7997C240 89.5997 239 89.5997 239 89.5997H238L235 96.7997C235 97.5997 234 97.5997 234 97.5997H233L231 104C231 104.8 230 104.8 230 104.8H229L226 110.4C226 111.2 225 111.2 225 111.2H224L221 116.8C221 117.6 220 117.6 220 117.6H219L216 123.2C216 124 215 124 214 124L212 126.4L211 127.2C210 127.2 210 127.2 210 127.2L208 129.6L207 130.4C207 130.4 207 130.4 206 130.4C207 131.2 208 131.2 209 132L211 130.4H212L214 128C214 127.2 215 127.2 215 127.2L216 124.8L217 124H218L220 120.8C220 120 221 120 222 120L225 115.2L226 114.4H227L230 108.8C230 108 231 108 231 108H232L235 102.4C235 101.6 236 101.6 236 101.6H237L239 95.1997C239 94.3997 240 94.3997 240 94.3997H241L244 87.1997C244 86.3997 245 86.3997 245 86.3997H246L249 79.1997C249 78.3997 250 78.3997 250 78.3997H251L252 71.9997C252 71.1997 252 71.1997 253 71.1997H254L256 63.9997C256 63.1997 257 63.1997 257 63.1997H258L259 56.7997C259 55.9997 259 55.9997 260 55.9997H261V49.5997C261 48.7997 261 48.7997 262 48.7997C262 48.7997 263 48.7997 264 48.7997V41.5997C264 40.7997 264 40.7997 265 40.7997C265 40.7997 266 40.7997 267 40.7997V31.9997C267 31.1997 267 31.1997 268 31.1997H269L268 27.1997C268 26.3997 268 26.3997 269 26.3997H270L269 22.3997V21.5997L270 20.7997L267 15.9997V15.1997L268 14.3997L266 11.9997V11.1997C265 11.1997 264 11.1997 264 11.1997C264 11.9997 263 11.9997 263 11.9997L265 14.3997C265 14.3997 265 15.1997 265 15.9997C265 16.7997 264 16.7997 264 16.7997H263L265 19.9997V20.7997L264 21.5997L265 25.5997C265 26.3997 265 26.3997 265 27.1997L264 27.9997V31.9997C264 32.7997 264 32.7997 263 33.5997C263 33.5997 262 33.5997 261 33.5997V40.7997Z" fill="black"/>
<path d="M302 44.7996L305 42.3996L304 39.9996V39.1996L306 36.7996L305 33.5996C305 32.7996 305 32.7996 306 31.9996L307 31.1996L306 29.5996C306 29.5996 306 28.7996 306 27.9996L307 26.3996L306 25.5996L305 26.3996H304L306 30.3996V31.1996L305 31.9996H304L306 36.7996C306 37.5996 306 37.5996 306 38.3996C306 38.3996 305 39.1996 304 39.1996L302 44.7996Z" fill="black"/>
<path d="M254 135.2C254 134.4 254 133.6 255 133.6L258 132.8C258 132 258 131.2 259 131.2L265 128L264 126.4C264 125.6 264 125.6 265 124.8L269 121.6L268 120.8C268 120 268 120 269 120L273 116.8V113.6C273 112.8 273 112.8 274 112.8L279 109.6L278 107.2C278 106.4 278 106.4 278 106.4L283 102.4L282 100.8C281 99.9996 281 99.1996 282 99.1996L287 94.3996L286 93.5996C285 92.7996 285 91.9996 286 91.9996L291 87.1996L289 85.5996C288 84.7996 288 83.9996 289 83.9996L294 78.3996L293 77.5996C293 76.7996 293 76.7996 293 75.9996L297 70.3996L296 69.5996C296 68.7996 295 68.7996 296 67.9996L300 63.1996L299 61.5996C299 60.7996 299 60.7996 299 59.9996L302 55.1996L301 53.5996V52.7996L303 49.5996L302 46.3996C302 46.3996 302 46.3996 302 45.5996C302 45.5996 302 46.3996 301 46.3996C301 46.3996 300 46.3996 299 46.3996H298V55.1996C298 55.9996 298 55.9996 297 55.9996C297 55.9996 296 55.9996 295 55.9996H294V63.9996C294 64.7996 294 64.7996 293 64.7996C293 64.7996 292 64.7996 291 64.7996H290V71.9996C290 72.7996 290 72.7996 289 73.5996C288 73.5996 288 73.5996 287 73.5996L286 79.9996C286 80.7996 286 80.7996 285 80.7996C284 80.7996 284 80.7996 283 80.7996L281 87.9996C281 88.7996 281 88.7996 280 88.7996H279L278 95.9996C278 96.7996 278 96.7996 277 96.7996C276 96.7996 276 96.7996 275 96.7996L272 104.8C272 105.6 271 105.6 271 105.6H270L267 112.8C267 113.6 266 113.6 266 113.6H265L263 120C263 120.8 262 120.8 262 120.8H261L258 126.4C258 127.2 257 127.2 257 127.2H256L253 132.8L252 133.6C251 133.6 251 133.6 251 133.6L247 139.2C247 140 246 140 245 140C245 140 245 140 244 140L242 142.4C243 142.4 244 142.4 245 142.4C245 141.6 245 140.8 246 140.8L251 139.2L254 135.2Z" fill="black"/>
<path d="M201 127.2L202 125.6C202 124.8 203 124.8 204 124.8H205L207 122.4L208 121.6H209L211 118.4C211 117.6 212 117.6 213 117.6L216 112.8L217 112H218L221 106.4C221 105.6 222 105.6 222 105.6H223L226 99.9998C226 99.1998 227 99.1998 227 99.1998H228L230 92.7998C230 91.9998 231 91.9998 231 91.9998H232L235 84.7998C235 83.9998 236 83.9998 236 83.9998H237L240 76.7998C240 75.9998 241 75.9998 241 75.9998H242L243 69.5998C243 68.7998 243 68.7998 244 68.7998H245L246 61.5998C246 60.7998 246 60.7998 247 60.7998H248L251 55.9998C251 55.1998 251 55.1998 252 55.1998H253V48.7998C253 47.9998 253 47.9998 254 47.9998C255 47.9998 255 47.9998 256 47.9998V40.7998C256 39.9998 256 39.9998 257 39.9998C257 39.9998 258 39.9998 259 39.9998V31.9998C259 31.1998 259 31.1998 260 31.1998H261L260 27.1998C260 26.3998 260 26.3998 261 26.3998H262L260 20.7998V19.9998L261 19.1998L260 15.1998V14.3998L261 13.5998L259 11.1998C259 11.1998 259 10.3998 259 9.5998C256 9.5998 253 8.7998 250 8.7998C205 8.7998 168 38.3998 168 74.3998C168 96.7998 181 116 201 127.2Z" fill="black"/>
<path d="M269 41.6C269 42.4 269 42.4 268 42.4C268 42.4 267 42.4 266 42.4V49.6C266 50.4 266 50.4 265 50.4C265 50.4 264 50.4 263 50.4V57.6C263 58.4 263 58.4 262 59.2C262 59.2 261 59.2 260 59.2L259 65.6C259 66.4 259 66.4 258 66.4C257 66.4 257 66.4 256 66.4L255 72.8C255 73.6 255 73.6 254 73.6H253L252 80C252 80.8 252 80.8 251 80.8C250 80.8 250 80.8 249 80.8L246 88.8C246 89.6 245 89.6 245 89.6H244L242 96.8C242 97.6 241 97.6 241 97.6H240L239 104C239 104.8 238 104.8 238 104.8H237L234 110.4C234 111.2 233 111.2 233 111.2H232L229 116.8L228 117.6H227L224 123.2C224 124 223 124 222 124L220 126.4L219 127.2H218L216 129.6C216 130.4 215 130.4 214 130.4H213L211 132.8C212 133.6 214 133.6 215 134.4L216 132.8L217 132C217 132 217 132 218 132L220 129.6L221 128.8H222L224 124.8C224 124 225 124 226 124C226 124 226 124 227 124L230 119.2L231 118.4H232L235 112C235 111.2 236 111.2 236 111.2H237L240 105.6C240 104.8 241 104.8 241 104.8H242L244 98.4C244 97.6 245 97.6 245 97.6H246L249 90.4C249 89.6 250 89.6 250 89.6H251L254 82.4C254 81.6 255 81.6 255 81.6H256L260 76C260 75.2 260 75.2 261 75.2H262L264 68C264 67.2 264 67.2 265 67.2C266 67.2 266 67.2 267 67.2L268 60.8C268 60 268 60 269 60H270V53.6C270 52.8 270 52.8 271 52.8C271 52.8 272 52.8 273 52.8V45.6C273 44.8 273 44.8 274 44.8C274 44.8 275 44.8 276 44.8H277V36.8C277 36 277 36 278 36C278 36 279 36 280 36L279 31.2C279 30.4 279 30.4 280 30.4H281L280 26.4V25.6L281 24.8L279 21.6V20.8L280 20L278 17.6V16.8C276 16 275 16 273 16L275 18.4C275 18.4 275 19.2 275 20C273 16 272 16 272 16H271L273 19.2V20L272 20.8L273 24.8C273 25.6 273 25.6 273 26.4L272 27.2L273 32C273 32.8 273 32.8 272 32.8C272 32.8 271 32.8 270 32.8V41.6H269Z" fill="black"/>
<path d="M332 75.1999C332 57.5999 323 42.3999 310 30.3999V31.1999C310 31.9999 310 32.7999 310 32.7999L309 33.5999L310 35.9999V36.7999L308 39.1999L309 42.3999C309 43.1999 309 43.1999 309 43.9999L307 46.3999L308 49.5999C308 50.3999 308 50.3999 308 51.1999L306 54.3999L307 55.9999V56.7999L304 61.5999L305 63.1999C305 63.9999 305 63.9999 305 64.7999L300 67.9999L301 68.7999C301 69.5999 302 69.5999 301 70.3999L297 75.9999L298 76.7999C298 77.5999 298 77.5999 298 78.3999L293 83.9999L295 85.5999C296 86.3999 296 87.1999 295 87.1999L290 91.9999L291 92.7999C292 93.5999 292 94.3999 291 94.3999L286 99.1999L287 100.8C288 101.6 288 102.4 287 102.4L280 107.2L281 109.6C281 110.4 281 110.4 280 111.2L275 114.4V117.6C275 118.4 275 118.4 274 118.4L271 120.8L272 121.6C272 122.4 272 122.4 271 122.4L266 126.4L267 128C267 128.8 267 128.8 266 129.6L261 132.8V133.6V134.4L260 135.2L257 136V137.6C257 138.4 257 139.2 256 139.2L252 140.8C296 139.2 332 110.4 332 75.1999Z" fill="black"/>
<path d="M279 44.7997C279 45.5997 279 45.5997 278 45.5997C278 45.5997 277 45.5997 276 45.5997H275V52.7997C275 53.5997 275 53.5997 274 53.5997C274 53.5997 273 53.5997 272 53.5997V60.7997C272 61.5997 272 61.5997 271 62.3997H270H269L270 69.5997C270 70.3997 270 70.3997 269 70.3997C268 70.3997 268 70.3997 267 70.3997L266 77.5997C266 78.3997 266 78.3997 265 78.3997H264L263 85.5997C263 86.3997 263 86.3997 262 86.3997C261 86.3997 261 86.3997 260 86.3997L257 94.3997C257 95.1997 256 95.1997 256 95.1997H255L252 102.4C252 103.2 251 103.2 251 103.2H250L247 109.6C247 110.4 246 110.4 246 110.4H245L240 116C240 116.8 239 116.8 239 116.8H238L235 122.4L234 123.2C233 123.2 233 123.2 233 123.2L229 128.8C229 129.6 228 129.6 227 129.6C227 129.6 227 129.6 226 129.6L224 132L223 132.8H222L220 136C221 136 222 136.8 224 136.8C226 135.2 228 134.4 229 132.8C230 132.8 230 132 230 132C232 130.4 243 118.4 250 110.4C256 102.4 260 96.7997 261 94.3997C262 92.7997 264 88.7997 266 83.9997C269 78.3997 272 72.7997 274 68.7997C277 61.5997 283 43.1997 285 31.1997C286 24.7997 285 19.1997 284 15.9997C283 15.9997 282 15.1997 282 15.1997L283 15.9997C283 15.9997 283 16.7997 283 17.5997C283 18.3997 282 18.3997 282 18.3997H281L283 22.3997V23.1997L282 23.9997H281L283 28.7997C283 29.5997 283 29.5997 283 30.3997L282 31.1997L283 35.9997C283 36.7997 283 36.7997 282 36.7997C282 36.7997 281 36.7997 280 36.7997V44.7997H279Z" fill="black"/>
<path d="M455 140.8C455 141.6 452 152.8 451 159.2C450 165.6 448 172.8 446 182.4C444 192 440 199.2 436 205.6C432 212.8 430 223.2 426 230.4C422 238.4 404 272 408 282.4C412 293.6 418 303.2 416 308.8C415 312 427 348 437 377.6C439 384 433 390.4 425 390.4H346C339 390.4 334 386.4 333 381.6C329 353.6 318 287.2 309 281.6C299 274.4 281 269.6 278 267.2C274 264.8 269 253.6 267 247.2C266 244.8 266 242.4 267 240.8V240C268 237.6 268 234.4 268 231.2C267 224.8 269 219.2 281 221.6C283 221.6 285 222.4 286 224C293 227.2 297 233.6 299 236C300 236.8 300 237.6 300 237.6C303 234.4 317 233.6 317 233.6C317 233.6 318 228 318 225.6C318 225.6 318 224.8 317 224C315 218.4 307 201.6 307 198.4C307 194.4 301 184 292 164C283 145.6 304 137.6 312 147.2C313 148 313 148.8 314 150.4C320 164.8 331 176 334 185.6C337 192.8 344 201.6 348 205.6C349 206.4 349 206.4 350 207.2C349 204.8 346 187.2 344 181.6C342 176 336 159.2 336 159.2C336 159.2 323 139.2 329 128C335 116.8 348 123.2 348 123.2C348 123.2 350 124.8 350 126.4C351 129.6 354 139.2 361 152C365 158.4 369 167.2 372 175.2C376 184 379 191.2 381 196C381 196.8 382 197.6 382 197.6C382 198.4 382 198.4 382 198.4V197.6C381 191.2 385 177.6 385 177.6C384 174.4 383 167.2 383 162.4C383 158.4 383 155.2 383 155.2C383 155.2 379 140.8 378 132.8C377 124.8 380 120.8 389 120C392 120 394 120 396 121.6C400 123.2 401 126.4 401 126.4C401 126.4 405 139.2 408 152.8C410 161.6 413 170.4 414 175.2C416 182.4 415 187.2 414 191.2L413 192.8C414 191.2 416 188 418 185.6C421 181.6 424 177.6 424 175.2C425 172 427 164 429 156C429 155.2 430 153.6 430 152.8C432 144.8 434 140 443 139.2C446 139.2 448 139.2 449 139.2C453 137.6 455 140 455 140.8Z" fill="black"/>
<path d="M233 247.2C232 253.6 226 264.8 222 267.2C219 269.6 201 274.4 191 281.6C183 287.2 171 352.8 168 381.6C167 387.2 162 390.4 155 390.4H75C67 390.4 61 384 63 377.6C73 348 85 312 84 308.8C82 303.2 89 293.6 92 282.4C95 271.2 78 238.4 74 230.4C70 222.4 68 212 64 205.6C60 198.4 56 191.2 54 182.4C52 172.8 51 166.4 49 159.2C47 152.8 45 142.4 45 140.8C45 140 46 137.6 51 136.8C53 136.8 55 136.8 57 136.8C66 137.6 68 142.4 70 150.4C70 151.2 71 152.8 71 153.6C73 160.8 76 168.8 76 172.8C76 174.4 79 179.2 82 183.2C84 185.6 86 188.8 87 190.4L86 188.8C85 184.8 84 180 86 172.8C87 168 90 159.2 92 149.6C96 136.8 99 123.2 99 123.2C99 123.2 100 120 104 118.4C106 116.8 108 116.8 111 116.8C120 117.6 123 122.4 122 129.6C121 137.6 117 152 117 152C117 152 118 168.8 115 174.4C115 174.4 118 188.8 118 194.4C118 193.6 119 193.6 119 192.8C121 188.8 124 180.8 128 172C132 164 136 156 139 148.8C147 136 150 126.4 150 123.2C150 122.4 152 120 152 120C152 120 165 113.6 171 124.8C177 136 164 156 164 156C164 156 158 172.8 156 178.4C153 184 150 200.8 150 204C150 203.2 151 203.2 152 202.4C156 198.4 164 189.6 166 182.4C169 172.8 180 161.6 186 147.2C186 145.6 187 144.8 188 144C196 134.4 216 141.6 208 160.8C199 181.6 193 191.2 193 195.2C192 198.4 185 215.2 183 220.8C182 221.6 182 222.4 182 222.4C183 224.8 183 230.4 183 230.4C183 230.4 197 232 200 234.4C200 234.4 200 233.6 201 232.8C202 230.4 207 224 214 220.8C216 220 217 219.2 219 218.4C231 216 233 221.6 232 228C232 232 232 234.4 233 236.8V237.6C234 242.4 234 244.8 233 247.2Z" fill="black"/>
</svg>
