<svg width="500" height="500" viewBox="0 0 500 500" fill="none" xmlns="http://www.w3.org/2000/svg">
<path d="M351 104.8L346 109.6L344 110.4C336 112.8 328 116 326 117.6C325 118.4 323 120 321 121.6C322 124 325 128 327 129.6C328 130.4 330 132 332 132.8C335 134.4 338 135.2 339 134.4C341 132.8 341 131.2 341 131.2C341 131.2 350 131.2 348 125.6C348 125.6 352 123.2 349 119.2C349 119.2 352 118.4 352 116C356 112.8 361 109.6 363 107.2C364 105.6 365 104.8 367 103.2C363 104.8 358 104.8 351 104.8Z" fill="black"/>
<path d="M149 212.8C139 242.4 159 255.2 135 281.6C131 285.6 143 282.4 155 288C160 290.4 161 292 163 296C164 297.6 166 297.6 166 296C167 294.4 167 292.8 167 292C167 290.4 168 288 169 285.6C172 280 172 273.6 173 271.2C173 270.4 176 265.6 178 259.2C163 246.4 152 229.6 149 212.8Z" fill="black"/>
<path d="M291 274.4C290 274.4 289 275.2 289 275.2H288L286 276C285 276 283 276.8 282 276.8C281 276.8 274 278.4 273 278.4C273 278.4 273 278.4 272 278.4H271C270 280 269 280 268 280H267C264 280 263 280.8 262 280.8C261 280.8 251 281.6 249 281.6H248C244 281.6 241 281.6 240 281.6C237 281.6 238 281.6 235 280.8H234H233H232C231 281.6 234 276.8 220 303.2C219 305.6 219 308.8 220 311.2L221 313.6C214 324.8 206 337.6 206 338.4L233 344.8L243 332C244 332 246 332 247 331.2C299 269.6 292 278.4 295 274.4C294 273.6 292 274.4 291 274.4Z" fill="black"/>
<path d="M370 76C360 82.4 351 87.2 342 88C341 88 340 88 339 88C327 88 316 78.4 314 70.4C313 68 311 61.6 309 57.6L308 56L309 53.6C309 53.6 309 51.2 309 49.6C306 45.6 306 40 307 36C304 36.8 300 37.6 297 38.4C297 38.4 281 34.4 259 40.8C237 47.2 219 64 206 67.2C193 70.4 189 81.6 186 90.4C186 90.4 182 92 172 105.6C162 119.2 164 116.8 164 125.6C164 130.4 162 147.2 161 160C170 148 182 137.6 198 129.6C230 113.6 262 119.2 264 119.2L265 120C265 120 265 120 266 120V119.2C269 119.2 280 121.6 281 122.4C280 122.4 283 123.2 284 123.2C287 124 293 126.4 294 126.4L295 127.2C296 128 297 128 298 128.8V124.8C298 124.8 313 116 316 112C319 108.8 338 102.4 338 102.4L345 96C345 96 363 96.8 368 92.8C373 88 379 85.6 379 84.8C379 84 384 70.4 381 60C381 64.8 377 70.4 370 76Z" fill="black"/>
<path d="M377 16.0001C360 4.00006 332 6.40006 325 32.0001C325 32.0001 325 31.2001 321 30.4001C317 29.6001 316 39.2001 316 43.2001C316 47.2001 319 45.6001 319 45.6001C318 53.6001 318 55.2001 318 56.0001C318 56.0001 323 65.6001 324 70.4001C324 72.0001 326 74.4001 327 76.0001C329 76.8001 333 86.4001 352 76.8001C373 67.2001 373 56.8001 374 56.0001C375 55.2001 375 55.2001 378 52.8001C383 48.0001 386 39.2001 388 32.8001C389 28.0001 383 20.0001 377 16.0001Z" fill="black"/>
<path d="M155 298.4C155 297.6 154 296 153 295.2C152 295.2 152 294.4 151 293.6C146 291.2 140 290.4 137 290.4C134 290.4 132 289.6 130 288.8C122 299.2 108 303.2 113 318.4C117 332 132 335.2 137 331.2C140 328.8 143 328 147 324C156 318.4 156 312.8 163 303.2C159 304 156 301.6 155 298.4Z" fill="black"/>
<path d="M239 373.6C237 366.4 236 368 236 360C236 357.6 236 355.2 236 353.6L199 344.8V345.6C199 348 199 350.4 200 352C201 356 202 359.2 202 362.4C202 363.2 202 364 202 364.8C201 368 200 374.4 200 379.2C200 383.2 200 388 204 389.6C211 392.8 230 392.8 235 389.6C239 387.2 241 385.6 240 380.8C240 378.4 240 376 239 373.6Z" fill="black"/>
<path d="M283 136.8C283 136.8 284 137.6 283 137.6C283 138.4 283 138.4 282 138.4H281C281 139.2 288 144 284 144.8C284 145.6 290 152 285 152C288 160 290 160.8 289 161.6C289 161.6 288 162.4 287 162.4H286L290 169.6C290 170.4 290 170.4 290 171.2C290 172 289 172 288 172H287C287 173.6 294 182.4 288 180.8L290 188C290 188.8 290 188.8 290 189.6C290 189.6 289 190.4 288 189.6C288 193.6 292 198.4 288 198.4L290 205.6C290 206.4 290 206.4 289 207.2C289 207.2 288 208 287 207.2C287 211.2 290 218.4 285 217.6C285 221.6 287 227.2 284 227.2C284 229.6 286 236.8 282 236C281 239.2 283 244.8 280 244L279 251.2C279 252 279 252 278 252C278 252 277 252 276 252C275 255.2 276 260.8 273 260C273 260.8 273 264.8 270 264.8C269 267.2 270 268.8 268 269.6H267V270.4C269 270.4 270 269.6 272 269.6C273 268 273 266.4 275 266.4C275 265.6 275 262.4 278 262.4C279 260.8 278 256.8 281 256.8C282 255.2 281 249.6 284 250.4C285 246.4 283 242.4 287 242.4C288 240 286 234.4 289 234.4C289 231.2 287 225.6 291 226.4C291 223.2 289 216 293 216.8C293 212.8 291 206.4 295 207.2C295 204 291 198.4 295 198.4L293 190.4C293 189.6 293 189.6 294 188.8C294 188.8 295 188 296 188.8L294 181.6C294 180.8 294 180.8 294 180L295 179.2L292 172C292 171.2 292 171.2 292 170.4C292 170.4 293 169.6 294 169.6H295C294 166.4 288 160 293 160H294C292 153.6 287 150.4 292 149.6C291 148 287 144 290 143.2L287 139.2V138.4C287 137.6 287 137.6 288 137.6C285 134.4 282 134.4 285 132C284 131.2 279 130.4 281 128C280 128 280 128 279 127.2C280 128 281 128.8 279 130.4L283 136.8Z" fill="black"/>
<path d="M261 127.2C262 128 262 128.8 261 129.6C262 130.4 267 132 264 133.6H263C264 135.2 269 137.6 266 139.2H265C266 140 272 144.8 268 145.6L271 150.4C271 151.2 271 151.2 271 152C271 152.8 270 152.8 269 152.8L273 160.8C273 161.6 273 161.6 273 162.4C273 163.2 272 163.2 271 163.2H270L274 170.4C275 171.2 274 172.8 272 172H271C274 178.4 275 179.2 274 180.8C273 181.6 273 181.6 272 181.6L274 188.8C274 189.6 274 189.6 274 190.4C274 190.4 273 191.2 272 190.4C272 194.4 276 199.2 272 199.2L274 206.4C274 207.2 274 207.2 273 208C272 208.8 272 208 271 208L272 216.8C272 217.6 272 217.6 271 218.4H270L271 226.4C271 227.2 271 227.2 270 228H269V235.2C269 236 269 236 268 236.8H267V244C267 244.8 267 244.8 266 245.6H265L264 252.8C264 253.6 264 253.6 263 253.6C263 253.6 262 253.6 261 253.6C260 257.6 261 261.6 258 261.6C258 262.4 258 266.4 255 266.4C255 267.2 255 272 252 271.2L251 274.4C251 274.4 251 274.4 251 275.2C252 275.2 253 275.2 254 275.2C264 267.2 269 248 272 236.8C280 209.6 279 151.2 259 128.8C262 127.2 261 127.2 261 127.2Z" fill="black"/>
<path d="M240 127.2C239 127.2 239 127.2 238 127.2H240C240 127.2 240 128 241 128.8V129.6C242 130.4 244 130.4 244 131.2C244 132 244 132 243 132.8C245 134.4 247 134.4 247 135.2C247 136 247 136 246 136H245L248 139.2C249 140 249 140.8 248 141.6C249 143.2 254 147.2 250 148L253 152.8C253 153.6 253 153.6 253 154.4C253 155.2 252 155.2 251 155.2L255 163.2C255 164 255 164 255 164.8C255 164.8 254 165.6 253 165.6L257 172.8C257 173.6 257 173.6 257 174.4C257 175.2 256 175.2 255 175.2C255 176.8 261 184 256 184C256 185.6 261 193.6 256 192C256 195.2 260 200 256 200.8C256 203.2 260 210.4 256 209.6C256 212.8 259 220 255 219.2C255 223.2 257 228 254 228C254 230.4 256 236.8 253 236C252 238.4 254 244 251 244C250 246.4 252 252.8 248 252C247 255.2 248 260 245 260C245 260.8 245 264.8 242 264C240 264 240 267.2 238 267.2C237 269.6 238 271.2 235 271.2L234 272.8C235 272.8 236 272.8 238 273.6C240 271.2 239 268.8 241 268.8C242 267.2 243 265.6 244 265.6C245 264 244 262.4 246 261.6C246 260.8 246 257.6 248 257.6C249 255.2 247 252.8 250 252C251 248.8 250 244.8 253 245.6C254 242.4 252 237.6 255 237.6C256 234.4 254 229.6 257 229.6C257 226.4 255 221.6 258 221.6C258 217.6 255 212 259 212C259 207.2 257 202.4 260 202.4C260 200 256 194.4 260 194.4C260 192 256 184.8 260 185.6C260 182.4 256 177.6 259 177.6L256 171.2C256 170.4 256 170.4 256 169.6C256 169.6 257 168.8 258 168.8L254 161.6C254 160.8 254 160.8 254 160C254 159.2 255 159.2 256 159.2C255 156 250 149.6 254 149.6C253 147.2 250 144.8 252 143.2C249 140 248 139.2 249 138.4C249 138.4 249 137.6 250 137.6L247 134.4C246 133.6 246 132.8 247 132C246 131.2 242 130.4 244 128.8C243 128 241 128 241 126.4L240 127.2Z" fill="black"/>
<path d="M262 272.8C263 272.8 264 272.8 266 272C267 271.2 267 270.4 268 270.4C269 269.6 268 266.4 271 266.4C271 265.6 271 261.6 274 262.4C275 260.8 274 256 277 256.8C278 254.4 277 248.8 280 249.6C281 245.6 279 240.8 283 240.8C284 237.6 282 232 285 232.8C285 228.8 283 224 286 224C286 220.8 283 212.8 288 214.4C288 209.6 286 204 289 204.8C289 201.6 285 196 289 196L287 188C287 187.2 287 187.2 288 186.4C288 186.4 289 185.6 290 186.4C290 184 286 177.6 289 177.6L286 171.2C286 170.4 286 170.4 286 169.6C286 169.6 287 168.8 288 168.8C284 161.6 283 160.8 284 160C284 159.2 285 159.2 286 159.2H287L283 151.2C283 150.4 283 150.4 283 149.6C283 148.8 284 148.8 284 148.8C283 146.4 279 143.2 282 142.4C279 139.2 278 138.4 279 137.6C279 137.6 279 136.8 280 136.8C277 134.4 276 133.6 276 132.8C276 132 276 132 277 132C276 131.2 272 130.4 273 128.8C271 128.8 270 128 268 128C291 158.4 287 247.2 262 272.8Z" fill="black"/>
<path d="M296 136C302 139.2 298 140 298 140.8L300 143.2C301 144 300 144.8 300 147.2L302 149.6C303 150.4 302 151.2 301 153.6L304 156C304 156 305 156.8 304 157.6L303 160.8L304 162.4V163.2L303 168.8L305 169.6C306 169.6 306 170.4 306 171.2L304 177.6L305 178.4C306 178.4 306 179.2 306 180L304 187.2L305 188C306 188 306 188.8 306 189.6L303 196.8L306 197.6C307 197.6 307 198.4 307 199.2L304 205.6L305 206.4C306 206.4 306 207.2 306 208L303 214.4L305 215.2C306 215.2 306 216 306 216.8L302 223.2L304 225.6C304 226.4 304 226.4 304 227.2L302 232L304 234.4C304 234.4 304 235.2 304 236L302 239.2L303 240C304 240.8 303 241.6 299 246.4L300 248C300 248.8 300 248.8 300 249.6L296 254.4L297 255.2V256C297 256.8 297 256.8 296 256.8L293 258.4L294 260C294 260.8 294 261.6 294 261.6L290 264.8C291 265.6 291 265.6 291 266.4C333 249.6 353 210.4 337 175.2C329 157.6 314 144 296 136Z" fill="black"/>
<path d="M289 136C290 137.6 295 140 292 141.6H291C292 142.4 298 148 294 148C296 152 296 150.4 297 153.6V154.4C297 155.2 296 155.2 295 155.2H294L298 164C298 164.8 298 164.8 298 165.6C297 166.4 297 166.4 296 166.4L300 173.6C300 174.4 300 174.4 300 175.2C299 176 299 176 298 176L302 183.2C302 184 302 184 302 184.8C302 185.6 301 185.6 300 185.6L302 192.8C302 193.6 302 193.6 302 194.4C302 194.4 301 195.2 300 194.4L302 201.6C302 202.4 302 202.4 302 203.2L301 204L303 211.2C303 212 303 212 302 212.8C302 212.8 301 213.6 300 212.8C300 216 302 224 298 223.2C298 226.4 300 232.8 297 232.8C297 235.2 299 241.6 295 240.8C294 244 296 248.8 293 248.8L290 253.6C290 254.4 290 254.4 289 254.4C289 254.4 288 254.4 287 254.4C286 257.6 287 262.4 284 262.4C284 263.2 284 267.2 281 266.4V268.8C282 268.8 283 268 284 268L286 265.6L285 264.8C283 263.2 287 261.6 290 260V258.4C290 257.6 290 256.8 290 256.8L292 255.2C291 254.4 291 253.6 292 253.6L296 248.8L295 247.2C295 246.4 295 246.4 295 245.6L298 240.8C295 240 299 236 300 234.4L299 232C298 231.2 299 230.4 302 225.6L300 224C299 223.2 301 222.4 303 216.8L302 216C301 216 301 215.2 301 214.4L304 208L303 207.2C302 207.2 302 206.4 302 205.6L305 199.2L302 198.4C301 198.4 301 197.6 301 196.8L304 189.6L303 188.8C302 188.8 302 188 302 187.2L304 180L303 179.2C302 179.2 302 178.4 302 177.6L304 171.2L302 170.4C301 170.4 301 169.6 301 168.8L302 163.2L300 162.4V161.6L301 158.4L298 156V155.2C298 154.4 299 152.8 299 152C297 149.6 296 149.6 296 148.8V145.6L294 143.2C293 142.4 294 141.6 295 140.8L293 139.2C292 138.4 292 137.6 292 136L291 135.2C291 135.2 290 135.2 290 134.4V135.2C290 135.2 290 135.2 289 136Z" fill="black"/>
<path d="M248 126.4V127.2C249 128 251 128 251 128.8C251 129.6 251 129.6 250 130.4C253 132 255 132 252 134.4L255 137.6C256 138.4 255 139.2 255 140C255 140.8 261 145.6 257 146.4L260 151.2C260 152 260 152 260 152.8C260 153.6 259 153.6 258 153.6L262 161.6C262 162.4 262 162.4 262 163.2C262 163.2 261 164 260 164L264 171.2C264 172 264 172 264 172.8C264 172.8 263 173.6 262 173.6L265 180C265 180.8 265 180.8 265 181.6C265 181.6 264 182.4 263 182.4L265 188.8C265 189.6 264 191.2 263 190.4C263 193.6 267 198.4 263 199.2C263 200.8 267 208.8 263 208C263 212 266 218.4 262 217.6C262 221.6 264 226.4 261 226.4C261 229.6 263 235.2 260 234.4V240.8C260 241.6 259 242.4 258 242.4C257 244.8 259 251.2 255 250.4C254 254.4 255 257.6 252 258.4C252 259.2 252 263.2 250 262.4C250 264.8 250 266.4 248 266.4H247C246 267.2 247 270.4 244 270.4C243 272 243 272.8 241 273.6L240 275.2C242 275.2 244 275.2 246 275.2H247C249 272.8 249 272 250 272C251 271.2 250 268 253 268C253 267.2 253 263.2 256 264C257 262.4 256 258.4 259 258.4C260 256 259 251.2 262 251.2L263 244C263 243.2 263 243.2 264 243.2H265V236.8C265 236 265 236 266 236H267V228.8C267 228 267 228 268 227.2H269C269 224 267 216.8 271 217.6L270 208.8C270 208 270 208 271 207.2H272L270 197.6C270 196.8 270 196.8 270 196L271 195.2L269 187.2C269 186.4 269 186.4 270 185.6C270 185.6 271 184.8 272 185.6L270 179.2C270 178.4 270 178.4 270 177.6L271 176.8L268 170.4C268 169.6 268 169.6 268 168.8C268 168 269 168 270 168L266 160.8C266 160 266 160 266 159.2C266 159.2 267 158.4 268 158.4H269L265 150.4C265 149.6 265 149.6 265 148.8C265 148 266 148 266 148C265 145.6 261 142.4 264 141.6C261 137.6 259 137.6 262 136L260 134.4C259 133.6 259 132.8 260 132C259 131.2 255 130.4 256 128C254 127.2 252 127.2 252 125.6C251 126.4 250 126.4 248 126.4Z" fill="black"/>
<path d="M232 269.6C234 267.2 234 266.4 235 266.4C236 265.6 235 262.4 238 262.4C239 260.8 238 258.4 241 258.4C242 256.8 241 252.8 243 252.8C244 250.4 243 245.6 246 246.4C247 241.6 245 238.4 248 238.4C249 235.2 247 230.4 250 230.4C250 227.2 248 222.4 251 222.4C251 219.2 248 212.8 252 212.8C252 208.8 250 203.2 253 203.2C253 200 249 195.2 253 195.2C253 192 249 185.6 253 186.4C253 184 249 178.4 252 178.4L249 172C249 171.2 249 171.2 249 170.4C249 170.4 250 169.6 251 169.6C248 163.2 246 162.4 247 161.6C247 161.6 248 160.8 249 160.8C248 157.6 243 151.2 247 151.2C246 149.6 243 146.4 245 144.8L242 141.6V140.8C242 140 242 140 243 140L240 136.8V136C240 136 240 135.2 241 135.2C240 134.4 236 133.6 238 132C236 131.2 235 131.2 235 129.6C234 129.6 232 129.6 232 128.8H230C135 146.4 136 254.4 230 272C230 271.2 230 269.6 232 269.6Z" fill="black"/>
</svg>
