<svg width="64" height="80" viewBox="0 0 64 80" fill="none" xmlns="http://www.w3.org/2000/svg">
<path d="M37.31 18.98C39.127 18.98 40.6 17.507 40.6 15.69C40.6 13.873 39.127 12.4 37.31 12.4C35.493 12.4 34.02 13.873 34.02 15.69C34.02 17.507 35.493 18.98 37.31 18.98Z" fill="white"/>
<path d="M42.05 19.23C41.8882 19.0759 41.6734 18.99 41.45 18.99C41.2266 18.99 41.0118 19.0759 40.85 19.23C40.7673 19.3064 40.7015 19.3993 40.6568 19.5026C40.612 19.6059 40.5893 19.7174 40.59 19.83C40.5895 19.9431 40.6113 20.0552 40.6542 20.1599C40.6971 20.2646 40.7603 20.3598 40.84 20.44L41.68 21.27C41.7584 21.3494 41.8518 21.4125 41.9548 21.4554C42.0579 21.4983 42.1684 21.5203 42.28 21.52C42.508 21.5188 42.7267 21.4292 42.89 21.27C42.9701 21.1909 43.0337 21.0967 43.0772 20.9929C43.1206 20.889 43.1429 20.7776 43.1429 20.665C43.1429 20.5524 43.1206 20.441 43.0772 20.3371C43.0337 20.2333 42.9701 20.1391 42.89 20.06L42.05 19.23Z" fill="white"/>
<path d="M37.31 8.07999C37.0819 8.07999 36.8632 8.17059 36.7019 8.33187C36.5406 8.49316 36.45 8.7119 36.45 8.93999V10.11C36.437 10.23 36.4494 10.3515 36.4865 10.4664C36.5235 10.5813 36.5843 10.6872 36.665 10.777C36.7456 10.8669 36.8443 10.9388 36.9546 10.988C37.0649 11.0372 37.1843 11.0626 37.305 11.0626C37.4258 11.0626 37.5452 11.0372 37.6554 10.988C37.7657 10.9388 37.8644 10.8669 37.945 10.777C38.0257 10.6872 38.0865 10.5813 38.1235 10.4664C38.1606 10.3515 38.173 10.23 38.16 10.11V8.93999C38.16 8.71362 38.0708 8.49638 37.9117 8.33538C37.7525 8.17439 37.5364 8.08262 37.31 8.07999Z" fill="white"/>
<path d="M41.45 12.4C41.5616 12.4003 41.6721 12.3783 41.7752 12.3354C41.8782 12.2925 41.9716 12.2294 42.05 12.15L42.89 11.32C43.0246 11.1549 43.0932 10.9457 43.0825 10.7329C43.0717 10.5202 42.9823 10.319 42.8317 10.1683C42.681 10.0177 42.4798 9.92832 42.2671 9.91754C42.0543 9.90677 41.8451 9.97535 41.68 10.11L40.85 10.94C40.7699 11.0191 40.7063 11.1133 40.6628 11.2171C40.6194 11.321 40.597 11.4324 40.597 11.545C40.597 11.6576 40.6194 11.769 40.6628 11.8729C40.7063 11.9767 40.7699 12.0709 40.85 12.15C41.0108 12.3069 41.2254 12.3963 41.45 12.4Z" fill="white"/>
<path d="M44.06 14.83H42.88C42.6519 14.83 42.4332 14.9206 42.2719 15.0819C42.1106 15.2432 42.02 15.4619 42.02 15.69C42.02 15.9181 42.1106 16.1368 42.2719 16.2981C42.4332 16.4594 42.6519 16.55 42.88 16.55H44.06C44.2881 16.55 44.5068 16.4594 44.6681 16.2981C44.8294 16.1368 44.92 15.9181 44.92 15.69C44.92 15.4619 44.8294 15.2432 44.6681 15.0819C44.5068 14.9206 44.2881 14.83 44.06 14.83Z" fill="white"/>
<path d="M37.31 20.41C37.1967 20.4087 37.0843 20.43 36.9793 20.4727C36.8744 20.5155 36.779 20.5788 36.6989 20.6589C36.6188 20.739 36.5555 20.8344 36.5127 20.9393C36.47 21.0443 36.4487 21.1567 36.45 21.27V22.44C36.437 22.56 36.4494 22.6815 36.4865 22.7964C36.5235 22.9113 36.5843 23.0172 36.665 23.107C36.7456 23.1969 36.8443 23.2688 36.9546 23.318C37.0649 23.3672 37.1843 23.3926 37.305 23.3926C37.4258 23.3926 37.5452 23.3672 37.6554 23.318C37.7657 23.2688 37.8644 23.1969 37.945 23.107C38.0257 23.0172 38.0865 22.9113 38.1235 22.7964C38.1606 22.6815 38.173 22.56 38.16 22.44V21.27C38.1613 21.1575 38.1403 21.0459 38.0982 20.9416C38.0561 20.8374 37.9937 20.7425 37.9146 20.6625C37.8355 20.5825 37.7414 20.519 37.6376 20.4756C37.5338 20.4323 37.4225 20.41 37.31 20.41Z" fill="white"/>
<path d="M32.56 19.23L31.73 20.06C31.6129 20.1802 31.5335 20.332 31.5017 20.4967C31.4698 20.6614 31.4868 20.8319 31.5505 20.987C31.6143 21.1422 31.7221 21.2754 31.8606 21.3701C31.9991 21.4648 32.1623 21.5169 32.33 21.52C32.5581 21.5189 32.7767 21.4292 32.94 21.27L33.77 20.44C33.8497 20.3598 33.9129 20.2646 33.9558 20.1599C33.9987 20.0552 34.0205 19.9431 34.02 19.83C34.0203 19.7184 33.9983 19.6079 33.9554 19.5048C33.9125 19.4018 33.8494 19.3084 33.77 19.23C33.6066 19.0753 33.3901 18.989 33.165 18.989C32.9399 18.989 32.7234 19.0753 32.56 19.23Z" fill="white"/>
<path d="M32.59 15.69C32.5874 15.4627 32.496 15.2455 32.3352 15.0847C32.1745 14.924 31.9573 14.8326 31.73 14.83H30.56C30.3319 14.83 30.1132 14.9206 29.9519 15.0819C29.7906 15.2432 29.7 15.4619 29.7 15.69C29.7 15.9181 29.7906 16.1368 29.9519 16.2981C30.1132 16.4594 30.3319 16.55 30.56 16.55H31.73C31.9573 16.5474 32.1745 16.4559 32.3352 16.2952C32.496 16.1345 32.5874 15.9173 32.59 15.69Z" fill="white"/>
<path d="M32.94 10.11C32.779 9.95061 32.5616 9.86121 32.335 9.86121C32.1084 9.86121 31.891 9.95061 31.73 10.11C31.6499 10.1891 31.5863 10.2833 31.5428 10.3871C31.4994 10.491 31.4771 10.6024 31.4771 10.715C31.4771 10.8276 31.4994 10.939 31.5428 11.0429C31.5863 11.1467 31.6499 11.2409 31.73 11.32L32.56 12.15C32.6384 12.2294 32.7318 12.2925 32.8348 12.3354C32.9379 12.3783 33.0484 12.4003 33.16 12.4C33.2731 12.4005 33.3852 12.3787 33.4899 12.3358C33.5946 12.2929 33.6898 12.2297 33.77 12.15C33.8494 12.0716 33.9125 11.9782 33.9554 11.8752C33.9983 11.7721 34.0203 11.6616 34.02 11.55C34.0205 11.4369 33.9987 11.3248 33.9558 11.2201C33.9129 11.1154 33.8497 11.0202 33.77 10.94L32.94 10.11Z" fill="white"/>
<path d="M15.18 15.18C15.1854 15.2064 15.1854 15.2336 15.18 15.26C9.73 15.26 9.18 19.47 9.78 22.74C9.78 22.74 10.37 20.03 14.04 17.37C13.13 18.94 12.84 21.17 15.04 23.98L16.28 17.46C18.207 21.726 19.5879 26.2182 20.39 30.83L22.99 27.63C21.9547 23.7392 20.4362 19.9934 18.47 16.48L24.06 20.48C23.67 16.05 21.06 14.93 19.06 14.76C23.89 13.99 26.36 14.76 26.36 14.76C24.54 11.97 21.56 10.16 17.62 13.96C18.855 11.5713 20.6451 9.5137 22.84 7.96001C18.67 7.61001 16 9.57001 16.3 13.74C16.3 13.98 16.3 14.23 16.38 14.49C16.1613 14.1953 15.9241 13.9148 15.67 13.65C13.09 10.99 10.03 11.54 7.4 14.49C10.0115 14.103 12.6774 14.3394 15.18 15.18Z" fill="white"/>
<path d="M49.38 34.87C46.5557 34.87 43.7948 35.7075 41.4465 37.2766C39.0981 38.8457 37.2678 41.0759 36.187 43.6853C35.1062 46.2946 34.8234 49.1658 35.3744 51.9359C35.9254 54.7059 37.2854 57.2504 39.2825 59.2475C41.2796 61.2446 43.8241 62.6046 46.5941 63.1556C49.3642 63.7066 52.2354 63.4238 54.8447 62.343C57.454 61.2622 59.6843 59.4319 61.2534 57.0835C62.8225 54.7352 63.66 51.9743 63.66 49.15C63.6547 45.3643 62.1485 41.7352 59.4716 39.0584C56.7948 36.3815 53.1657 34.8753 49.38 34.87ZM49.38 59.66C47.3013 59.66 45.2693 59.0436 43.541 57.8887C41.8126 56.7339 40.4655 55.0925 39.67 53.172C38.8745 51.2515 38.6664 49.1383 39.0719 47.0996C39.4775 45.0609 40.4785 43.1882 41.9483 41.7183C43.4182 40.2485 45.2909 39.2475 47.3296 38.8419C49.3683 38.4364 51.4816 38.6445 53.402 39.44C55.3225 40.2355 56.9639 41.5826 58.1187 43.311C59.2736 45.0393 59.89 47.0713 59.89 49.15C59.8873 51.9366 58.7792 54.6083 56.8088 56.5788C54.8383 58.5492 52.1666 59.6573 49.38 59.66Z" fill="white"/>
<path d="M32.12 49.15C32.12 48.79 32.12 48.44 32.17 48.09H5.36C5.13007 48.0874 4.91029 47.9949 4.74769 47.8323C4.5851 47.6697 4.4926 47.4499 4.49 47.22V5.59C4.4926 5.36006 4.5851 5.14028 4.74769 4.97769C4.91029 4.81509 5.13007 4.72259 5.36 4.72H47C47.2299 4.72259 47.4497 4.81509 47.6123 4.97769C47.7749 5.14028 47.8674 5.36006 47.87 5.59V32C48.37 32 48.87 31.92 49.39 31.92C50.271 31.927 51.1501 32.0006 52.02 32.14V5.59C52.02 4.93339 51.8907 4.28321 51.6394 3.67658C51.3881 3.06995 51.0198 2.51876 50.5555 2.05446C50.0912 1.59017 49.5401 1.22187 48.9334 0.970599C48.3268 0.719325 47.6766 0.589996 47.02 0.589996H5.36C4.03392 0.589996 2.76215 1.11678 1.82447 2.05446C0.886787 2.99214 0.360003 4.26391 0.360003 5.59V47.22C0.342684 48.4112 0.751231 49.5694 1.51207 50.486C2.27291 51.4027 3.33604 52.0176 4.51 52.22C4.79741 52.2686 5.08852 52.2921 5.38 52.29H32.41C32.2186 51.2543 32.1215 50.2033 32.12 49.15Z" fill="white"/>
<path d="M39.72 34.85L38.8 33.31C38.512 33.0256 38.1247 32.8642 37.72 32.86C37.3122 32.8637 36.9216 33.025 36.63 33.31L34.42 35.52L27.26 26.7C27.1178 26.557 26.9488 26.4435 26.7625 26.3661C26.5763 26.2886 26.3767 26.2487 26.175 26.2487C25.9733 26.2487 25.7737 26.2886 25.5874 26.3661C25.4012 26.4435 25.2322 26.557 25.09 26.7L17.93 35.52L15.72 33.31C15.432 33.0256 15.0447 32.8642 14.64 32.86C14.2322 32.8637 13.8416 33.025 13.55 33.31L7.66 43.21C7.53469 43.3525 7.4525 43.5276 7.423 43.715C7.39351 43.9024 7.41793 44.0944 7.49342 44.2684C7.56891 44.4425 7.69236 44.5914 7.84934 44.698C8.00632 44.8045 8.19037 44.8642 8.38 44.87H32.68C33.7265 40.7834 36.2302 37.22 39.72 34.85Z" fill="white"/>
<path d="M54.25 47.89L50.55 42.43C50.421 42.2382 50.2468 42.081 50.0428 41.9724C49.8388 41.8637 49.6111 41.8069 49.38 41.8069C49.1488 41.8069 48.9212 41.8637 48.7172 41.9724C48.5132 42.081 48.339 42.2382 48.21 42.43L44.52 47.89C44.3765 48.1022 44.2934 48.3495 44.2799 48.6053C44.2663 48.8612 44.3227 49.1159 44.443 49.3421C44.5633 49.5683 44.7429 49.7574 44.9626 49.8892C45.1823 50.0209 45.4338 50.0904 45.69 50.09H47.34V54.39C47.3337 54.9217 47.5312 55.4356 47.892 55.8261C48.2528 56.2167 48.7495 56.4542 49.28 56.49C49.5542 56.5092 49.8294 56.4718 50.0884 56.3799C50.3475 56.288 50.5848 56.1438 50.7856 55.9561C50.9864 55.7684 51.1464 55.5414 51.2555 55.2891C51.3647 55.0369 51.4207 54.7648 51.42 54.49V50.09H53.07C53.327 50.0922 53.5798 50.0241 53.8009 49.8931C54.0221 49.762 54.2032 49.573 54.3247 49.3465C54.4462 49.12 54.5034 48.8646 54.4903 48.6078C54.4771 48.3511 54.394 48.1029 54.25 47.89Z" fill="white"/>
</svg>
