<svg width="360" height="630" viewBox="0 0 360 630" fill="none" xmlns="http://www.w3.org/2000/svg">
<g clip-path="url(#clip0_2003_113)">
<path d="M215.757 147.63C211.807 147.63 208.607 150.83 208.607 154.78C208.607 158.74 211.807 161.94 215.757 161.94C219.707 161.94 222.917 158.74 222.917 154.78C222.917 150.83 219.707 147.63 215.757 147.63Z" fill="black"/>
<path d="M144.207 147.63C140.257 147.63 137.057 150.83 137.057 154.78C137.057 158.74 140.257 161.94 144.207 161.94C148.167 161.94 151.367 158.74 151.367 154.78C151.367 150.83 148.167 147.63 144.207 147.63Z" fill="black"/>
<path d="M358.952 396.565C357.369 392.229 354.017 388.723 349.751 386.945C339.102 382.525 329.433 378.864 320.939 376.03C303.215 313.766 270.428 279.794 243.818 261.695C248.388 259.359 251.809 257.144 254.168 254.996C254.517 254.685 254.851 254.374 255.136 254.076C261.471 247.598 270.032 232.843 280.58 210.225C281.835 207.543 282.48 204.665 282.514 201.759C288.472 199.166 292.82 193.739 293.938 187.174L297.61 165.712C298.932 157.965 295.506 150.22 288.877 145.976L285.012 143.512C285.967 143.094 286.891 142.58 287.766 141.955C291.745 139.113 294.026 134.679 294.026 129.788C294.026 124.364 291.109 119.471 286.543 116.838C286.068 83.041 276.19 54.211 257.892 33.34C238.77 11.529 211.827 0 179.977 0C148.127 0 121.184 11.529 102.061 33.342C83.7632 54.213 73.8852 83.042 73.4102 116.839C68.8452 119.471 65.9272 124.365 65.9272 129.79C65.9272 135.93 69.6432 141.213 74.9382 143.515L71.0702 145.981C64.4462 150.221 61.0202 157.966 62.3432 165.714L66.0132 187.172C67.1332 193.739 71.4812 199.166 77.4392 201.759C77.4732 204.666 78.1182 207.543 79.3712 210.22C89.9212 232.843 98.4822 247.598 104.793 254.052C105.103 254.374 105.437 254.686 105.754 254.968C108.135 257.135 111.561 259.356 116.135 261.694C89.5252 279.794 56.7382 313.766 39.0142 376.029C30.5202 378.864 20.8502 382.524 10.1972 386.947C5.93517 388.723 2.58417 392.229 1.00117 396.565C-0.582829 400.906 -0.276829 405.752 1.84517 409.868C4.71017 415.402 10.3472 418.84 16.5572 418.84C17.5712 418.84 18.6162 418.738 19.6722 418.537C23.9392 417.718 30.0682 416.74 35.0362 416.74C37.3352 416.74 39.4022 417.163 41.4502 417.799L26.9242 456.944C26.2162 458.864 25.8572 460.85 25.8572 462.849C25.8572 469.931 30.3182 476.341 36.9562 478.799C38.8942 479.519 40.8842 479.86 42.8442 479.86C44.0192 479.86 45.1812 479.728 46.3162 479.491L45.7252 481.084C45.0172 483.004 44.6582 484.994 44.6582 486.999C44.6582 494.081 49.1202 500.487 55.7582 502.938C57.7012 503.66 59.6952 504.001 61.6552 504.001C68.5662 504.001 75.0782 499.757 77.6192 492.908L81.3842 482.751C83.2932 485.232 85.8752 487.205 88.9252 488.338C90.8532 489.054 92.8562 489.41 94.8532 489.41C97.2662 489.41 99.6722 488.889 101.931 487.854C104.775 486.55 107.136 484.524 108.856 482.006C110.832 484.825 113.639 487.063 116.995 488.307C119.002 489.052 121.055 489.408 123.069 489.408C129.898 489.407 136.295 485.333 139.034 478.599C140.169 475.799 141.252 473.054 142.279 470.387C148.88 472.78 163.104 477.088 179.978 477.088C196.851 477.088 211.076 472.78 217.676 470.387C218.704 473.056 219.787 475.801 220.923 478.605C223.661 485.334 230.057 489.408 236.885 489.408C238.9 489.408 240.951 489.054 242.957 488.308C246.314 487.064 249.123 484.825 251.099 482.006C252.82 484.524 255.18 486.55 258.024 487.854C260.283 488.889 262.689 489.41 265.102 489.41C267.099 489.41 269.102 489.054 271.03 488.338C274.081 487.205 276.662 485.232 278.572 482.751L282.338 492.908C284.878 499.758 291.391 504.002 298.3 504.001C300.26 504.001 302.252 503.66 304.194 502.939C310.837 500.486 315.298 494.08 315.298 486.998C315.298 484.993 314.939 483.003 314.228 481.076L313.639 479.49C314.774 479.727 315.936 479.859 317.111 479.858C319.069 479.858 321.059 479.517 322.996 478.798C329.637 476.339 334.098 469.929 334.098 462.847C334.098 460.848 333.739 458.862 333.028 456.936L318.505 417.797C320.553 417.161 322.62 416.738 324.919 416.738C329.888 416.738 336.017 417.716 340.29 418.537C341.34 418.736 342.385 418.838 343.398 418.838C349.608 418.838 355.245 415.4 358.114 409.859C360.231 405.752 360.536 400.906 358.952 396.565ZM250.461 247.345L236.035 241.931C244.04 235.629 250.63 228.447 254.948 221.235C256.451 218.726 257.898 215.802 259.267 212.53H270.633C262.506 229.426 255.469 241.587 250.461 247.345ZM96.1022 154.435C95.7142 149.958 95.4362 145.394 95.2612 140.828C101.739 138.791 108.267 136.923 114.769 135.258C112.496 150.198 107.175 163.62 98.8942 175.314C97.7532 168.695 96.8142 161.706 96.1022 154.435ZM96.6192 184.75H96.6172V184.745L96.6192 184.75ZM263.337 184.75H263.335L263.336 184.746H263.337V184.75ZM261.06 175.314C252.778 163.62 247.458 150.198 245.185 135.258C251.688 136.923 258.215 138.791 264.693 140.828C264.518 145.379 264.241 149.936 263.857 154.39C263.141 161.693 262.201 168.692 261.06 175.314ZM239.542 204.53C240.207 197.818 240.605 190.805 240.729 183.582C246.51 184.85 252.485 186.231 258.588 187.706C257.151 193.959 255.543 199.597 253.784 204.53H239.542ZM250.519 212.53C249.724 214.21 248.911 215.745 248.085 217.125C244.987 222.299 240.356 227.631 234.805 232.529C236.38 226.101 237.647 219.417 238.594 212.53H250.519ZM253.332 178.234C247.958 176.98 242.689 175.797 237.611 174.718C212.335 169.331 192.944 166.6 179.977 166.6C167.01 166.6 147.62 169.331 122.345 174.718C117.265 175.798 111.996 176.981 106.622 178.235C115.535 165.074 121.063 149.984 123.125 133.219C143.836 128.446 162.953 126.02 179.977 126.02C197.001 126.02 216.118 128.445 236.829 133.219C238.891 149.983 244.419 165.073 253.332 178.234ZM232.755 181.874C232.664 189.72 232.248 197.316 231.507 204.53H183.977V174.693C195.642 175.171 212.33 177.625 232.755 181.874ZM175.977 174.693V204.53H128.447C127.706 197.315 127.29 189.72 127.199 181.874C147.623 177.625 164.312 175.171 175.977 174.693ZM119.224 183.581C119.349 190.804 119.746 197.816 120.411 204.529H106.169C104.411 199.599 102.802 193.96 101.365 187.705C107.468 186.23 113.443 184.849 119.224 183.581ZM121.359 212.53C122.307 219.415 123.573 226.1 125.148 232.529C119.597 227.632 114.966 222.3 111.868 217.126C111.042 215.746 110.23 214.211 109.435 212.531H121.359V212.53ZM129.799 248.269C131.327 252.637 133.034 256.927 134.912 261.11C131.667 259.878 128.664 258.664 125.944 257.476C122.437 255.938 119.452 254.47 116.993 253.074L129.799 248.269ZM129.426 212.53H175.977V232.661L135.082 238.618C132.605 230.334 130.736 221.738 129.426 212.53ZM144.053 245.395L175.977 240.744V254.402C170.555 254.089 165.071 253.152 159.619 251.584C154.305 250.062 149.101 247.985 144.053 245.395ZM154.517 258.38V267.828C151.439 266.861 148.469 265.892 145.624 264.929C143.513 260.818 141.576 256.573 139.829 252.223C144.599 254.711 149.509 256.763 154.517 258.38ZM175.977 262.413V274.067C172.67 273.179 167.942 271.873 162.517 270.27V260.568C167.007 261.567 171.508 262.181 175.977 262.413ZM162.517 278.606C172.009 281.367 178.923 283.109 179.002 283.13C179.322 283.21 179.649 283.25 179.977 283.25C180.305 283.25 180.631 283.21 180.952 283.13C181.032 283.109 187.945 281.367 197.437 278.606V280.87C197.419 282.486 196.783 296.661 179.977 296.661C163.171 296.661 162.535 282.486 162.517 280.89V278.606ZM183.977 274.066V262.413C188.447 262.181 192.947 261.567 197.437 260.568V270.269C192.014 271.871 187.285 273.178 183.977 274.066ZM183.977 254.402V240.744L215.902 245.395C210.853 247.985 205.648 250.062 200.332 251.585C194.882 253.153 189.399 254.089 183.977 254.402ZM205.437 258.379C210.446 256.762 215.355 254.71 220.125 252.223C218.378 256.573 216.441 260.818 214.33 264.929C211.485 265.892 208.515 266.861 205.437 267.828V258.379ZM183.977 232.66V212.53H230.528C229.218 221.739 227.349 230.335 224.872 238.618L183.977 232.66ZM230.155 248.268L242.963 253.075C240.507 254.467 237.523 255.936 234.017 257.473C231.293 258.662 228.288 259.877 225.042 261.109C226.92 256.926 228.627 252.636 230.155 248.268ZM274.145 204.53H262.242C263.726 200.044 265.093 195.082 266.335 189.706C270.574 191.295 273.669 195.035 274.374 199.589C274.634 201.243 274.548 202.916 274.145 204.53ZM80.8672 136.75C77.0412 136.75 73.9282 133.627 73.9282 129.79C73.9282 126.796 75.8312 124.144 78.6602 123.192C95.3502 117.59 138.633 104.56 179.977 104.56C221.321 104.56 264.604 117.59 281.291 123.192C284.123 124.144 286.026 126.796 286.026 129.79C286.026 132.064 284.965 134.126 283.116 135.447C281.263 136.771 278.962 137.106 276.809 136.369C274.895 135.709 272.676 134.972 270.028 134.115C270.027 134.115 270.027 134.115 270.027 134.115C260.546 131.051 250.917 128.344 241.405 126.071C219.037 120.73 198.369 118.021 179.976 118.021C161.583 118.021 140.915 120.729 118.546 126.071C109.035 128.344 99.4062 131.05 89.9242 134.115C87.2762 134.972 85.0572 135.709 83.1532 136.365C82.4052 136.62 81.6352 136.75 80.8672 136.75ZM85.5802 199.583C86.2852 195.032 89.3842 191.29 93.6182 189.705C94.8602 195.082 96.2272 200.045 97.7112 204.53H85.8082C85.4062 202.917 85.3202 201.242 85.5802 199.583ZM109.492 247.345C104.502 241.616 97.4592 229.45 89.3212 212.53H100.686C102.056 215.803 103.503 218.726 105.005 221.235C109.323 228.447 115.913 235.63 123.918 241.931L109.492 247.345ZM136.231 463.787C134.826 467.542 133.274 471.516 131.622 475.592C129.716 480.278 124.514 482.57 119.777 480.809C116.147 479.463 113.708 475.959 113.708 472.09C113.708 471.036 113.889 469.994 114.246 468.99C114.255 468.965 114.294 468.849 114.302 468.824C114.303 468.822 114.309 468.804 114.314 468.789L124.328 441.79C125.097 439.719 124.04 437.417 121.969 436.649C119.901 435.877 117.596 436.937 116.828 439.008L106.788 466.078C106.773 466.118 106.77 466.158 106.757 466.198C106.756 466.201 106.754 466.204 106.752 466.208C106.745 466.225 106.735 466.239 106.728 466.256L106.718 466.282C106.717 466.286 106.714 466.289 106.713 466.293C106.713 466.295 106.706 466.313 106.702 466.326L103.288 475.527C102.45 477.784 100.785 479.579 98.5982 480.582C96.4112 481.586 93.9652 481.677 91.7112 480.838C88.1922 479.531 85.8282 476.135 85.8282 472.388C85.8282 471.323 86.0112 470.286 86.3712 469.304C86.3772 469.289 86.3832 469.274 86.3882 469.259L96.5772 441.788C97.3462 439.718 96.2892 437.415 94.2182 436.647C92.1482 435.875 89.8452 436.935 89.0772 439.006L78.9192 466.394C78.9002 466.438 78.8832 466.483 78.8662 466.527L70.1172 490.127C69.2792 492.384 67.6152 494.18 65.4292 495.182C63.2452 496.184 60.7972 496.274 58.5332 495.436C55.0182 494.137 52.6572 490.747 52.6572 486.998C52.6572 485.941 52.8492 484.883 53.2272 483.859L58.7972 468.849C58.7982 468.847 58.7982 468.845 58.7982 468.843C58.8052 468.825 58.8112 468.806 58.8182 468.788C58.8212 468.781 58.8252 468.775 58.8272 468.768L69.9872 438.667C70.7552 436.596 69.6982 434.294 67.6272 433.525C65.5532 432.756 63.2552 433.815 62.4852 435.885L51.3252 465.986C51.3242 465.99 51.3232 465.994 51.3222 465.999C51.3142 466.019 51.3072 466.038 51.2992 466.06C49.5462 470.664 44.3642 473.013 39.7362 471.296C36.2192 469.993 33.8572 466.599 33.8572 462.847C33.8572 461.797 34.0492 460.743 34.4272 459.719L48.9442 420.596C53.3092 422.246 58.3282 423.797 65.0472 423.797C80.3562 423.797 94.5822 407.061 95.1802 406.349C96.6012 404.657 96.3802 402.133 94.6892 400.713C92.9982 399.292 90.4742 399.511 89.0532 401.204C85.6462 405.264 74.6912 415.797 65.0472 415.797C58.5332 415.797 53.8772 413.961 49.3752 412.186L48.0552 411.668C44.2392 410.186 40.0892 408.737 35.0362 408.737C29.4372 408.737 22.7692 409.793 18.1692 410.676C17.6112 410.782 17.0692 410.836 16.5572 410.836C13.3492 410.836 10.4342 409.055 8.95317 406.193C7.83917 404.032 7.68417 401.586 8.51717 399.304C9.34817 397.028 11.0382 395.26 13.2712 394.329C24.5742 389.637 34.7502 385.81 43.5142 382.959C43.6052 382.93 43.6942 382.897 43.7812 382.861C50.9822 380.527 57.0932 378.906 61.9602 378.041C64.6922 377.546 67.0372 377.295 68.9282 377.295C87.1262 377.295 100.913 384.39 101.114 384.494C103.07 385.525 105.484 384.774 106.515 382.823C107.546 380.87 106.799 378.45 104.846 377.418C104.232 377.095 89.9162 369.655 70.3222 369.311C77.4942 362.011 91.3162 352.051 111.195 355.709C131.872 359.51 138.134 379.402 140.031 391.06C132.146 386.62 124.299 385.289 123.864 385.217C121.685 384.858 119.635 386.334 119.275 388.513C118.916 390.69 120.39 392.747 122.566 393.111C122.684 393.131 134.475 395.168 142.106 402.367C145.862 405.929 147.91 410 148.366 414.806C149.166 423.396 144.857 440.788 136.231 463.787ZM179.977 469.09C164.489 469.09 151.153 465.057 145.091 462.885C153.435 440.028 157.221 423.606 156.33 414.061C155.744 407.883 153.198 402.426 148.798 397.788C148.373 389.906 144.912 356.947 116.854 348.84L122.791 326.819C123.366 324.686 122.103 322.491 119.97 321.916C117.84 321.341 115.643 322.604 115.067 324.737L108.984 347.303C92.5582 345.379 79.9112 351.336 71.3032 357.883C75.3272 347.897 79.9222 338.551 85.0522 329.972C99.1452 306.415 113.49 290.778 132.594 278.641C131.48 283.305 131.653 288.436 134.06 293.551C140.535 307.322 165.311 320.522 166.363 321.076C166.959 321.39 167.597 321.54 168.226 321.54C169.662 321.54 171.049 320.765 171.766 319.407C172.798 317.454 172.051 315.034 170.098 314.002C163.59 310.562 145.73 299.569 141.299 290.146C137.841 282.799 141.601 276.119 144.086 272.852C147.415 273.968 150.904 275.09 154.52 276.206V280.889C154.52 289.111 159.841 304.66 179.98 304.66C200.119 304.66 205.44 289.111 205.44 280.889V276.206C209.056 275.09 212.545 273.968 215.874 272.852C218.359 276.119 222.118 282.799 218.66 290.147C214.23 299.57 196.37 310.562 189.862 314.002C187.909 315.034 187.162 317.454 188.194 319.407C188.911 320.764 190.298 321.54 191.734 321.54C192.363 321.54 193.003 321.391 193.597 321.076C194.649 320.521 219.425 307.322 225.899 293.552C228.306 288.437 228.48 283.306 227.366 278.641C246.47 290.778 260.815 306.416 274.908 329.972C280.037 338.55 284.631 347.894 288.654 357.877C280.048 351.331 267.404 345.379 250.976 347.304L244.893 324.738C244.317 322.605 242.122 321.344 239.99 321.917C237.857 322.492 236.594 324.688 237.169 326.82L243.106 348.841C215.048 356.947 211.586 389.906 211.162 397.789C206.764 402.422 204.216 407.882 203.63 414.068C202.739 423.608 206.526 440.031 214.87 462.89C208.818 465.063 195.519 469.09 179.977 469.09ZM351.005 406.19C349.52 409.058 346.605 410.839 343.397 410.839C342.884 410.839 342.342 410.785 341.792 410.681C337.185 409.795 330.517 408.74 324.918 408.74C319.865 408.74 315.716 410.188 311.897 411.672L310.579 412.189C306.077 413.964 301.421 415.8 294.907 415.8C285.305 415.8 274.321 405.264 270.901 401.207C269.48 399.514 266.958 399.298 265.265 400.716C263.574 402.136 263.353 404.659 264.774 406.352C265.372 407.064 279.598 423.8 294.907 423.8C301.626 423.8 306.645 422.249 311.01 420.599L325.525 459.716C325.905 460.745 326.097 461.8 326.097 462.85C326.097 466.602 323.735 469.996 320.215 471.3C315.585 473.016 310.395 470.661 308.648 466.045L308.631 465.999C308.63 465.996 308.63 465.992 308.628 465.989L297.468 435.888C296.699 433.818 294.401 432.758 292.326 433.528C290.255 434.297 289.198 436.598 289.966 438.67L301.126 468.771C301.127 468.773 301.128 468.776 301.129 468.778C301.133 468.788 301.136 468.798 301.139 468.808C301.146 468.825 301.152 468.842 301.158 468.859L306.723 483.854C307.104 484.884 307.296 485.943 307.296 487C307.296 490.748 304.935 494.139 301.415 495.439C299.157 496.275 296.71 496.186 294.523 495.183C292.337 494.181 290.673 492.385 289.836 490.128L281.086 466.528C281.076 466.504 281.061 466.463 281.045 466.424L270.875 439.007C270.107 436.936 267.803 435.88 265.734 436.648C263.663 437.416 262.606 439.718 263.375 441.789L273.564 469.26C273.568 469.271 273.576 469.291 273.582 469.307C273.941 470.288 274.124 471.325 274.124 472.389C274.124 476.136 271.76 479.533 268.241 480.839C265.986 481.678 263.542 481.587 261.354 480.583C259.166 479.58 257.501 477.785 256.664 475.527L253.247 466.319L253.215 466.222C253.207 466.197 253.192 466.175 253.183 466.15C253.174 466.126 253.173 466.101 253.164 466.077L243.124 439.007C242.356 436.936 240.052 435.875 237.983 436.648C235.912 437.416 234.855 439.717 235.624 441.789L245.637 468.786L245.673 468.894C245.684 468.926 245.694 468.957 245.705 468.989C246.062 469.993 246.243 471.035 246.243 472.089C246.243 475.958 243.804 479.462 240.171 480.809C235.435 482.573 230.236 480.277 228.331 475.597C226.677 471.515 225.125 467.541 223.719 463.784C215.094 440.787 210.784 423.395 211.586 414.816C212.042 410.003 214.09 405.932 217.839 402.378C225.469 395.18 237.242 393.14 237.385 393.115C239.562 392.756 241.037 390.702 240.681 388.523C240.326 386.343 238.281 384.861 236.088 385.221C235.653 385.292 227.805 386.623 219.918 391.067C221.812 379.427 228.069 359.515 248.756 355.713C268.634 352.058 282.456 362.016 289.629 369.315C270.035 369.659 255.719 377.098 255.106 377.422C253.153 378.454 252.406 380.874 253.437 382.827C254.469 384.78 256.888 385.527 258.842 384.496C258.979 384.424 272.678 377.299 291.024 377.299C292.915 377.299 295.259 377.55 298.004 378.047C302.858 378.91 308.969 380.53 316.169 382.865C316.256 382.9 316.346 382.933 316.437 382.963C325.202 385.815 335.377 389.641 346.675 394.331C348.913 395.264 350.603 397.031 351.434 399.308C352.27 401.59 352.116 404.036 351.005 406.19Z" fill="black"/>
</g>
<defs>
<clipPath id="clip0_2003_113">
<rect width="359.954" height="630.004" fill="white"/>
</clipPath>
</defs>
</svg>
