<svg width="496" height="514" viewBox="0 0 496 514" fill="none" xmlns="http://www.w3.org/2000/svg">
<g clip-path="url(#clip0_2001_59)">
<path d="M191.722 202.312C190.259 201.49 188.564 201.289 186.951 201.743C185.336 202.197 183.995 203.252 183.175 204.715C181.481 207.734 182.558 211.568 185.577 213.262L215.736 230.189C213.523 224.264 211.143 218.01 208.727 211.857L191.722 202.312Z" fill="black"/>
<path d="M413.186 312.051L302.268 249.798C300.241 248.659 297.895 248.38 295.659 249.009C293.423 249.637 291.565 251.099 290.429 253.124L280.368 271.05C278.021 275.232 279.514 280.543 283.695 282.89L394.613 345.143L413.186 312.051Z" fill="black"/>
<path d="M218.096 124.99C207.442 106.235 181.777 77.8138 181.518 77.5298C180.035 75.8918 180.161 73.3628 181.798 71.8798C183.435 70.3978 185.965 70.5238 187.448 72.1588C187.816 72.5648 191.029 76.1228 195.539 81.4058C204.636 79.3588 212.95 74.3028 219.141 66.9948C226.44 58.3788 230.112 47.5888 229.479 36.6108C228.851 25.7088 224.043 15.9258 215.944 9.06377C207.844 2.20177 197.403 -0.931227 186.547 0.240773C175.615 1.42177 165.574 6.81677 158.275 15.4338C150.541 24.5628 146.901 36.1758 148.088 47.6498C157.305 50.3218 163.352 53.9028 163.887 54.2278C165.776 55.3738 166.38 57.8318 165.235 59.7218C164.09 61.6108 161.631 62.2128 159.742 61.0698C159.262 60.7858 133.563 45.7528 107.471 56.8988C80.0969 68.5918 45.2269 135.379 41.0259 160.748C38.9819 173.096 40.8179 190.218 42.7619 208.346C44.9669 228.903 47.4659 252.202 44.5149 272.488C40.9899 296.722 24.7839 323.888 11.8079 342.41C6.91693 349.391 8.14594 358.771 14.6659 364.228C18.0709 367.078 22.3739 368.396 26.7949 367.929C31.2029 367.467 35.1359 365.294 37.8699 361.81C54.3419 340.812 82.9069 302.579 89.1389 282.444C93.1469 269.496 95.1199 257.094 97.0279 245.101C99.4949 229.596 101.824 214.952 108.232 200.908C117.809 179.916 152.993 153.589 165.211 144.884C157.784 138.231 151.935 133.684 151.805 133.583C150.057 132.231 149.736 129.72 151.087 127.972C152.438 126.224 154.95 125.904 156.698 127.253C157.944 128.216 187.348 151.065 199.243 171.011C207.505 184.865 221.777 223.073 229.549 244.615C232.395 252.504 240.899 256.724 248.905 254.221C252.968 252.952 256.265 250.164 258.189 246.37C260.111 242.58 260.413 238.277 259.038 234.255C238.732 174.871 223.809 135.045 218.096 124.99Z" fill="black"/>
<path d="M267.26 244.708C266.831 246.515 266.19 248.286 265.327 249.987C264.241 252.128 262.866 254.055 261.249 255.732L275.349 263.646L281.494 252.698L267.26 244.708Z" fill="black"/>
<path d="M403.301 141.871L390.367 290.07L420.59 307.033C421.515 307.553 422.196 308.418 422.483 309.439C422.77 310.46 422.64 311.553 422.121 312.479L399.632 352.547C398.898 353.854 397.54 354.59 396.14 354.59C395.477 354.59 394.806 354.425 394.186 354.077L385.22 349.045L379.8 411.144H444.103L420.602 141.871H403.301Z" fill="black"/>
<path d="M21.765 305.973C22.737 305.823 23.741 305.664 24.76 305.501C30.32 294.391 34.988 282.417 36.6 271.336C36.979 268.729 37.257 266.074 37.462 263.383L14.431 268.978C4.44898 271.403 -1.70502 281.173 0.419982 291.223C2.49198 301.027 11.864 307.512 21.765 305.973Z" fill="black"/>
<path d="M115.512 204.227C109.556 217.282 107.309 231.405 104.93 246.357C102.978 258.628 100.959 271.315 96.783 284.808C96.478 285.793 96.114 286.824 95.72 287.878C115.178 280.382 127.632 271.779 131.954 262.776C143.24 239.262 124.901 211.614 116.987 201.355C116.439 202.326 115.942 203.285 115.512 204.227Z" fill="black"/>
<path d="M461.538 261.603L486.527 233.692C488.001 232.046 487.861 229.517 486.215 228.044C484.569 226.569 482.04 226.71 480.567 228.357L455.578 256.268C454.104 257.914 454.244 260.443 455.89 261.916C456.653 262.6 457.607 262.936 458.557 262.936C459.654 262.935 460.748 262.486 461.538 261.603Z" fill="black"/>
<path d="M492.39 288.414L461.22 285.414C459.028 285.197 457.067 286.812 456.855 289.013C456.643 291.211 458.254 293.165 460.453 293.377L491.623 296.377C491.753 296.39 491.883 296.396 492.011 296.396C494.047 296.396 495.789 294.848 495.988 292.779C496.2 290.58 494.588 288.625 492.39 288.414Z" fill="black"/>
<path d="M489.063 336.43L463.095 318.66C461.273 317.414 458.783 317.878 457.535 319.702C456.287 321.525 456.754 324.015 458.577 325.262L484.545 343.032C485.236 343.505 486.022 343.731 486.8 343.731C488.075 343.731 489.33 343.123 490.105 341.99C491.353 340.167 490.886 337.677 489.063 336.43Z" fill="black"/>
</g>
<defs>
<clipPath id="clip0_2001_59">
<rect width="496.007" height="513.93" fill="white"/>
</clipPath>
</defs>
</svg>
